<svg width="283" height="305" viewBox="0 0 283 305" fill="none" xmlns="http://www.w3.org/2000/svg">
<g clip-path="url(#clip0_201_73)">
<path d="M122.215 97.7974C122.004 95.682 121.315 93.6422 120.201 91.8313C119.088 90.0205 117.578 88.4858 115.785 87.3427C113.993 86.1997 111.964 85.4781 109.852 85.2321C107.741 84.9861 105.601 85.2223 103.594 85.9228L104.613 86.0268C100.042 86.9412 95.9796 89.5362 93.2286 93.2996C91.8848 95.1808 90.9611 97.329 90.5202 99.5985C90.0792 101.868 90.1314 104.206 90.673 106.453C91.8282 110.917 95.2382 114.789 99.6029 116.275C102.03 117.101 104.635 117.202 107.198 117.289C108.861 117.346 110.555 117.396 112.159 116.951C114.221 116.312 116.035 115.048 117.348 113.333C118.649 111.625 119.684 109.73 120.418 107.713C121.66 104.557 122.553 101.172 122.215 97.7974Z" fill="#2F2E41"/>
<path d="M158.456 303.449C154.832 289.82 162.88 276.535 172.284 267.339C177.295 262.437 182.876 258.177 188.319 253.776C193.541 249.599 198.515 245.12 203.214 240.362C212.287 231.075 220.202 220.462 225.443 208.532C230.427 197.187 232.783 184.829 231.616 172.451C230.509 160.711 226.301 149.163 218.56 140.155C217.596 139.033 216.581 137.957 215.516 136.928C214.945 136.374 214.07 137.247 214.642 137.802C223.286 146.195 228.318 157.57 230.02 169.403C231.776 181.607 229.967 194.048 225.404 205.457C220.543 217.611 212.812 228.456 203.848 237.92C199.333 242.656 194.531 247.109 189.467 251.253C184.06 255.707 178.441 259.915 173.293 264.675C163.803 273.448 155.274 285.516 156.446 299.1C156.583 300.68 156.856 302.245 157.264 303.778C157.312 303.931 157.418 304.059 157.558 304.136C157.699 304.213 157.864 304.232 158.019 304.189C158.173 304.147 158.305 304.046 158.387 303.908C158.469 303.77 158.493 303.605 158.456 303.449V303.449Z" fill="#5A5A5A" fill-opacity="0.6"/>
<path d="M196.406 225.857C190.696 216.066 186.328 205.552 183.421 194.597C180.505 183.644 179.047 172.355 179.084 161.021C179.125 149.688 180.501 138.071 184.015 127.263C187.349 117.006 193.324 107.224 202.809 101.626C207.646 98.7886 213.169 97.3302 218.776 97.4094C224.699 97.4656 230.54 99.0245 235.877 101.549C241.103 104.021 245.883 107.353 250.298 111.067C254.507 114.603 258.435 118.46 262.046 122.604C269.201 130.832 275.047 140.359 278.312 150.805C281.715 161.692 282.311 173.599 279.153 184.617C276.12 195.2 269.476 204.22 261.318 211.465C252.503 219.295 242.06 224.986 231.53 230.15C228.894 231.443 226.244 232.706 223.595 233.969C222.877 234.311 223.503 235.377 224.218 235.036C235.322 229.744 246.535 224.406 256.433 217.018C265.166 210.499 272.951 202.315 277.582 192.347C282.48 181.805 283.483 169.819 281.454 158.445C279.47 147.329 274.493 136.926 267.832 127.866C264.522 123.383 260.844 119.185 256.835 115.315C252.722 111.253 248.231 107.593 243.424 104.384C233.569 97.9429 221.245 94.053 209.566 97.371C199.183 100.321 191.192 108.64 186.437 118.068C183.776 123.345 181.982 129.02 180.706 134.779C179.461 140.453 178.624 146.21 178.201 152.005C176.504 175.127 181.036 198.281 191.325 219.057C192.578 221.576 193.916 224.051 195.339 226.481C195.425 226.616 195.559 226.713 195.715 226.751C195.871 226.789 196.036 226.765 196.174 226.684C196.312 226.604 196.414 226.472 196.457 226.318C196.501 226.163 196.482 225.998 196.406 225.857V225.857Z" fill="#5A5A5A" fill-opacity="0.6"/>
<path d="M188.578 213.908C182.867 204.118 178.5 193.604 175.593 182.648C172.677 171.696 171.219 160.407 171.256 149.073C171.297 137.739 172.673 126.122 176.187 115.314C179.521 105.057 185.496 95.275 194.981 89.6776C199.818 86.8401 205.341 85.3818 210.948 85.4609C216.871 85.5171 222.712 87.076 228.049 89.6004C233.275 92.0727 238.055 95.4046 242.47 99.1188C246.679 102.654 250.607 106.511 254.218 110.656C261.373 118.884 267.219 128.411 270.484 138.857C273.887 149.743 274.483 161.651 271.325 172.669C268.292 183.251 261.647 192.271 253.49 199.517C244.674 207.347 234.232 213.037 223.702 218.202C221.066 219.494 218.416 220.757 215.766 222.02C215.049 222.362 215.675 223.428 216.39 223.088C227.494 217.796 238.707 212.458 248.605 205.069C257.338 198.55 265.123 190.367 269.754 180.398C274.652 169.856 275.655 157.87 273.625 146.497C271.642 135.381 266.665 124.978 260.004 115.917C256.694 111.435 253.016 107.236 249.007 103.366C244.894 99.3049 240.403 95.6449 235.596 92.4359C225.741 85.9944 213.417 82.1045 201.738 85.4226C191.355 88.3723 183.364 96.6914 178.609 106.119C175.948 111.396 174.154 117.071 172.878 122.83C171.633 128.505 170.796 134.262 170.373 140.056C168.676 163.178 173.208 186.332 183.497 207.108C184.75 209.628 186.088 212.102 187.511 214.532C187.596 214.668 187.731 214.765 187.887 214.803C188.043 214.841 188.207 214.817 188.346 214.736C188.484 214.655 188.586 214.524 188.629 214.369C188.673 214.215 188.654 214.05 188.578 213.908V213.908Z" fill="#5A5A5A" fill-opacity="0.6"/>
<path d="M76.0554 190.745C75.6195 190.13 75.3236 189.427 75.1887 188.685C75.0538 187.943 75.0832 187.181 75.2747 186.452C75.4662 185.723 75.8152 185.045 76.2972 184.466C76.7792 183.886 77.3824 183.419 78.0643 183.098L92.3514 138.363L102.302 143.532L85.129 185.88C85.5927 187.061 85.607 188.371 85.1691 189.562C84.7312 190.753 83.8716 191.743 82.7531 192.342C81.6347 192.942 80.3351 193.111 79.1007 192.816C77.8663 192.522 76.7827 191.785 76.0554 190.745H76.0554Z" fill="#FFB6B6"/>
<path d="M87.7277 144.549C87.591 144.247 87.5211 143.918 87.523 143.586C87.5249 143.254 87.5984 142.926 87.7386 142.624L92.6321 132.104C93.1148 130.474 94.2241 129.102 95.7165 128.289C97.209 127.476 98.963 127.288 100.594 127.766C102.225 128.244 103.6 129.349 104.417 130.839C105.235 132.33 105.428 134.083 104.955 135.715L103.319 147.241C103.272 147.57 103.155 147.885 102.976 148.164C102.796 148.444 102.559 148.681 102.279 148.861C102 149.04 101.685 149.158 101.356 149.204C101.027 149.251 100.692 149.227 100.373 149.132L89.1783 145.815C88.8597 145.721 88.5651 145.559 88.3148 145.341C88.0644 145.122 87.8642 144.852 87.7277 144.549V144.549Z" fill="#2F2E41"/>
<path d="M129.003 146.325C125.602 155.228 126.471 164.567 130.659 174.244H100.994C102.186 167.359 101.702 160.96 97.2856 155.703L129.003 146.325Z" fill="#FFB6B6"/>
<path d="M94.2842 129.963L103.064 123.578L117.43 119.587L129.402 121.982L130.106 128.597C130.962 136.644 130.59 144.775 129.003 152.71V152.71L97.8758 159.893L94.6832 154.306C94.6832 154.306 87.5 147.123 93.087 139.142L94.2842 129.963Z" fill="#2F2E41"/>
<path d="M170.538 85.3019C170.734 86.0297 170.768 86.7917 170.638 87.5341C170.507 88.2765 170.216 88.9813 169.784 89.5988C169.351 90.2163 168.789 90.7316 168.136 91.1083C167.483 91.4849 166.756 91.7139 166.005 91.7789L137.104 128.793L129.561 120.497L160.341 86.722C160.315 85.4532 160.756 84.219 161.579 83.2534C162.403 82.2878 163.552 81.6577 164.809 81.4827C166.066 81.3076 167.343 81.5997 168.399 82.3036C169.455 83.0075 170.216 84.0743 170.538 85.3019V85.3019Z" fill="#FFB6B6"/>
<path d="M143.584 124.592C143.608 124.924 143.559 125.256 143.442 125.567C143.326 125.878 143.143 126.16 142.907 126.394L134.672 134.568C133.654 135.93 132.139 136.832 130.457 137.078C128.775 137.324 127.064 136.893 125.7 135.879C124.335 134.866 123.428 133.352 123.178 131.671C122.928 129.99 123.354 128.278 124.364 126.911L129.891 116.666C130.049 116.374 130.268 116.119 130.533 115.918C130.798 115.718 131.103 115.578 131.428 115.506C131.752 115.435 132.088 115.434 132.413 115.504C132.738 115.574 133.043 115.713 133.31 115.912L142.662 122.902C142.928 123.101 143.149 123.355 143.308 123.646C143.467 123.938 143.561 124.261 143.584 124.592V124.592Z" fill="#2F2E41"/>
<path d="M94.3231 295.347H98.8689L101.032 277.813H94.3223L94.3231 295.347Z" fill="#FFB6B6"/>
<path d="M92.7836 293.105L99.9697 292.676V295.755L106.802 300.473C107.139 300.706 107.393 301.041 107.527 301.429C107.661 301.817 107.667 302.237 107.545 302.628C107.423 303.02 107.179 303.362 106.849 303.605C106.518 303.848 106.119 303.979 105.709 303.979H97.1536L95.6789 300.934L95.1031 303.979H91.8774L92.7836 293.105Z" fill="#2F2E41"/>
<path d="M126.46 295.347H131.006L133.169 277.813H126.459L126.46 295.347Z" fill="#FFB6B6"/>
<path d="M124.92 293.105L132.106 292.676V295.755L138.938 300.473C139.276 300.706 139.53 301.041 139.664 301.429C139.797 301.817 139.804 302.237 139.682 302.628C139.56 303.02 139.316 303.362 138.985 303.605C138.655 303.848 138.256 303.979 137.846 303.979H129.29L127.816 300.934L127.24 303.979H124.014L124.92 293.105Z" fill="#2F2E41"/>
<path d="M138.537 197.107V206.048L137.663 216.97C137.663 216.97 137.387 226.508 137.053 234.032C136.852 238.605 136.625 242.433 136.427 242.927C136.184 243.533 136.242 245.185 136.382 246.919C136.547 248.926 136.819 251.044 136.864 251.752C136.95 253.075 136.25 258.757 136.25 258.757C136.25 258.757 135.467 273.004 134.33 274.141C133.193 275.278 134.33 278.513 134.33 278.513C128.999 282.443 122.266 277.639 122.266 277.639C123.754 275.27 121.393 259.099 121.393 259.099C121.393 259.099 121.047 253.578 120.346 252.094C119.646 250.611 119.469 241.345 119.469 241.345V227.621C119.469 227.621 117.631 224.811 117.372 223.5C117.112 222.19 117.372 217.559 117.372 217.559L115.451 211.091L114.137 216.158C114.137 216.158 110.734 230.319 110.12 232.066C109.506 233.813 110.466 235.564 110.466 235.564C110.466 235.564 111.344 238.259 110.466 239.495C109.921 240.269 109.504 241.126 109.23 242.033C109.23 242.033 108.781 247.191 107.994 249.037C107.207 250.883 106.511 253.157 106.511 253.157C106.511 253.157 106.696 256.643 105.909 257.43C105.122 258.217 104.863 262.152 104.863 262.152C104.863 262.152 105.036 266.605 103.985 268.179C102.934 269.753 102.934 278.669 102.934 278.669C101.112 279.838 99.0127 280.503 96.8497 280.595C94.6868 280.687 92.5382 280.203 90.6235 279.193C90.6235 279.193 91.6618 278.22 90.8748 273.688C90.088 269.156 91.4393 256.816 91.4393 256.816C91.4393 256.816 91.2663 253.685 92.1396 252.284C93.0131 250.883 91.6988 248.176 92.0491 246.952C92.3993 245.729 93.4499 239.083 93.4499 239.083C93.4499 239.083 93.0131 222.738 93.0131 221.865C92.9098 220.31 92.4891 218.793 91.7771 217.407C90.9903 216.01 91.7771 205.87 91.7771 205.87C91.7771 205.87 93.6312 200.63 93.0131 199.492C92.3951 198.355 93.4252 196.345 93.4252 196.345C93.4252 196.345 92.4651 193.984 93.4252 193.547C94.3852 193.11 94.5624 191.363 94.5624 191.363L95.2297 182.884C95.2297 182.884 95.4812 179.036 96.2805 178.863C97.0798 178.69 96.7295 177.206 97.5165 176.156C97.9 175.446 98.1644 174.677 98.2993 173.882C98.4106 173.395 98.5136 172.889 98.6001 172.402C98.8473 171.084 98.9998 169.947 98.9998 169.947C104.158 174.232 131.281 171.228 131.31 171.228C133.032 171.603 135.08 177.581 136.559 182.793C137.874 187.451 138.539 192.267 138.537 197.107Z" fill="#2F2E41"/>
<path d="M118.808 108.337C120.785 101.833 117.116 94.9587 110.613 92.9817C104.109 91.0047 97.2344 94.6741 95.2574 101.178C93.2804 107.681 96.9498 114.556 103.453 116.533C109.957 118.51 116.831 114.84 118.808 108.337Z" fill="#FFB6B6"/>
<path d="M93.1219 106.902L97.8877 105.911L98.7652 99.586L100.411 105.386L102.688 104.912L103.2 101.222L104.16 104.605L121.086 101.084C120.737 99.4085 120.062 97.8185 119.099 96.4044C118.136 94.9902 116.904 93.7795 115.473 92.8415C114.042 91.9036 112.44 91.2566 110.759 90.9376C109.079 90.6186 107.351 90.6338 105.676 90.9823L103.223 91.4927C99.8402 92.1967 96.8755 94.2156 94.9811 97.1055C93.0867 99.9953 92.418 103.519 93.1219 106.902V106.902Z" fill="#2F2E41"/>
<path d="M141.878 14.3584L141.846 14.4185C135.631 11.5549 128.552 11.1922 122.076 13.4053C115.6 15.6184 110.224 20.2379 107.061 26.3066C103.898 32.3753 103.191 39.4282 105.086 46.0041C106.981 52.58 111.333 58.1749 117.241 61.6297L117.209 61.6898L164.541 86.3581L189.209 39.0267C190.833 35.9186 191.828 32.5208 192.138 29.0278C192.448 25.5347 192.066 22.0148 191.015 18.6694C189.964 15.3239 188.264 12.2184 186.011 9.53038C183.759 6.84239 180.999 4.62463 177.89 3.00388C174.78 1.38312 171.381 0.391145 167.888 0.0846626C164.395 -0.221819 160.875 0.163198 157.531 1.21771C154.186 2.27222 151.082 3.97554 148.396 6.2303C145.711 8.48507 143.496 11.2471 141.878 14.3584V14.3584Z" fill="#37A5F3"/>
<path d="M184.047 285.96L184.039 285.976C182.468 285.252 180.679 285.16 179.042 285.72C177.405 286.279 176.046 287.446 175.247 288.98C174.448 290.514 174.269 292.297 174.748 293.959C175.227 295.621 176.327 297.035 177.82 297.908L177.812 297.923L189.775 304.158L196.01 292.195C196.42 291.41 196.672 290.551 196.75 289.668C196.829 288.785 196.732 287.895 196.467 287.05C196.201 286.204 195.771 285.419 195.202 284.74C194.633 284.06 193.935 283.5 193.149 283.09C192.363 282.68 191.504 282.43 190.621 282.352C189.738 282.275 188.848 282.372 188.003 282.639C187.158 282.905 186.373 283.336 185.694 283.906C185.016 284.476 184.456 285.174 184.047 285.96V285.96Z" fill="#FF6584"/>
<path d="M25.3526 134.275V134.343C18.5172 134.676 12.072 137.626 7.35229 142.582C2.63256 147.538 -3.17772e-06 154.119 0 160.962C3.17773e-06 167.806 2.63258 174.387 7.35232 179.343C12.0721 184.298 18.5172 187.248 25.3526 187.582V187.649L78.7266 187.649L78.7266 134.275C78.73 130.768 78.0422 127.295 76.7025 124.055C75.3629 120.814 73.3977 117.869 70.9192 115.388C68.4408 112.907 65.4977 110.939 62.2582 109.596C59.0187 108.254 55.5463 107.562 52.0396 107.562C48.5328 107.562 45.0605 108.254 41.821 109.596C38.5815 110.939 35.6384 112.907 33.1599 115.388C30.6815 117.869 28.7163 120.814 27.3766 124.055C26.037 127.295 25.3492 130.768 25.3526 134.275V134.275Z" fill="#37A5F3"/>
<path d="M274.096 304.815H7.40122C7.27111 304.815 7.14634 304.763 7.05434 304.671C6.96234 304.579 6.91064 304.454 6.91064 304.324C6.91064 304.194 6.96234 304.069 7.05434 303.977C7.14634 303.885 7.27111 303.833 7.40122 303.833H274.096C274.226 303.833 274.351 303.885 274.443 303.977C274.535 304.069 274.587 304.194 274.587 304.324C274.587 304.454 274.535 304.579 274.443 304.671C274.351 304.763 274.226 304.815 274.096 304.815V304.815Z" fill="#CACACA"/>
<path d="M231.634 184.698C237.086 184.664 242.357 182.74 246.548 179.254C250.815 175.666 253.624 170.641 254.445 165.127C254.927 162.009 254.771 158.826 253.988 155.77C253.94 155.617 253.835 155.489 253.694 155.412C253.553 155.335 253.388 155.316 253.234 155.359C253.079 155.402 252.947 155.502 252.865 155.641C252.784 155.779 252.759 155.943 252.796 156.099C254.117 161.287 253.521 166.779 251.118 171.563C249.271 175.14 246.478 178.142 243.042 180.24C239.606 182.339 235.66 183.453 231.634 183.462C231.474 183.468 231.322 183.535 231.211 183.651C231.099 183.766 231.037 183.92 231.037 184.08C231.037 184.241 231.099 184.395 231.211 184.51C231.322 184.625 231.474 184.693 231.634 184.698V184.698Z" fill="#5A5A5A" fill-opacity="0.6"/>
<path d="M136.192 24.1532C132.675 20.8147 127.122 20.8235 123.061 23.1475C118.503 25.7555 116.436 31.1446 116.541 36.2047C116.658 41.8995 119.443 47.056 123.038 51.3268C126.87 55.7643 131.329 59.6188 136.274 62.7681C141.206 65.9799 146.542 68.5229 152.143 70.3304C152.833 70.5527 153.526 70.7633 154.222 70.9623C154.378 70.9995 154.542 70.9747 154.68 70.8932C154.818 70.8116 154.919 70.6796 154.962 70.525C155.005 70.3705 154.986 70.2054 154.909 70.0647C154.832 69.9239 154.704 69.8184 154.551 69.7704C143.795 66.6969 134.016 60.8948 126.163 52.9275C122.425 49.0988 119.103 44.4972 118.081 39.1415C117.179 34.4117 118.176 28.92 121.842 25.5509C125.406 22.2759 131.643 21.5385 135.318 25.0272C135.895 25.5748 136.77 24.7022 136.192 24.1532V24.1532Z" fill="white"/>
<path d="M24.4388 147.277C19.6884 146.686 15.2271 150.028 13.3769 154.248C11.302 158.981 12.7009 164.436 15.7105 168.436C19.0251 172.841 24.0457 175.409 29.2938 176.772C34.9273 178.235 40.9075 178.63 46.7065 178.36C53.5617 178.042 60.3267 176.667 66.7619 174.283C67.5011 174.009 67.1813 172.813 66.4333 173.091C55.7207 177.069 43.7949 178.324 32.5298 176.224C27.4943 175.285 22.3659 173.494 18.6135 169.871C15.2135 166.589 12.8082 161.617 13.8314 156.816C14.8482 152.045 19.384 147.885 24.4388 148.513C25.2262 148.611 25.2191 147.374 24.4388 147.277V147.277Z" fill="white"/>
<path d="M103.471 86.7317C104.62 82.1387 102.394 77.2122 98.9485 73.9652C95.5028 70.7183 91.0063 68.8522 86.556 67.2365C83.0071 65.948 78.8501 64.8273 75.6381 66.8118C73.0571 68.4064 71.9376 71.5038 70.4621 74.1547C67.6505 79.2062 63.1144 83.0769 57.6834 85.0587C52.2525 87.0405 46.2895 87.0011 40.8853 84.9476C42.7901 90.4774 49.3515 93.1823 55.1881 92.8066C61.0248 92.431 66.4156 89.7431 71.8527 87.5877C77.2898 85.4323 83.3379 83.767 88.9261 85.4931C91.2847 86.2217 93.4298 87.5219 95.7651 88.3221C98.1003 89.1222 100.833 89.3605 102.914 88.033" fill="#2F2E41"/>
<path d="M185.22 254.952L181.242 247.949C181.156 247.814 181.021 247.717 180.865 247.679C180.709 247.64 180.545 247.665 180.406 247.745C180.268 247.826 180.166 247.958 180.123 248.112C180.08 248.267 180.098 248.432 180.174 248.573L184.153 255.576C184.239 255.712 184.373 255.809 184.529 255.847C184.685 255.885 184.85 255.861 184.988 255.78C185.126 255.699 185.228 255.567 185.271 255.413C185.315 255.259 185.296 255.093 185.22 254.952V254.952Z" fill="#5A5A5A" fill-opacity="0.6"/>
</g>
<defs>
<clipPath id="clip0_201_73">
<rect width="282.442" height="304.815" fill="white"/>
</clipPath>
</defs>
</svg>
