<svg width="283" height="305" viewBox="0 0 283 305" fill="none" xmlns="http://www.w3.org/2000/svg">
<g clip-path="url(#clip0_515_38)">
<path d="M122.216 97.7974C122.004 95.682 121.315 93.6422 120.202 91.8313C119.088 90.0205 117.578 88.4858 115.785 87.3427C113.993 86.1997 111.964 85.4781 109.853 85.2321C107.741 84.9861 105.601 85.2223 103.594 85.9228L104.613 86.0268C100.042 86.9412 95.9798 89.5362 93.2287 93.2996C91.8849 95.1808 90.9612 97.329 90.5203 99.5985C90.0794 101.868 90.1315 104.206 90.6731 106.453C91.8283 110.917 95.2383 114.789 99.6031 116.275C102.03 117.101 104.635 117.202 107.198 117.289C108.861 117.346 110.555 117.396 112.159 116.951C114.222 116.312 116.035 115.048 117.348 113.333C118.649 111.625 119.684 109.73 120.418 107.713C121.661 104.557 122.553 101.172 122.216 97.7974Z" fill="#2F2E41"/>
<path d="M158.456 303.45C154.832 289.82 162.88 276.535 172.284 267.339C177.295 262.438 182.876 258.177 188.319 253.776C193.542 249.599 198.515 245.12 203.214 240.362C212.287 231.075 220.202 220.462 225.443 208.532C230.427 197.188 232.783 184.829 231.616 172.451C230.509 160.711 226.301 149.163 218.561 140.156C217.596 139.033 216.581 137.958 215.517 136.928C214.946 136.374 214.071 137.247 214.642 137.802C223.287 146.196 228.318 157.57 230.02 169.404C231.776 181.607 229.967 194.048 225.404 205.457C220.543 217.611 212.813 228.456 203.848 237.92C199.333 242.656 194.531 247.109 189.467 251.253C184.06 255.707 178.442 259.916 173.293 264.676C163.803 273.449 155.275 285.516 156.446 299.1C156.583 300.68 156.856 302.246 157.264 303.778C157.312 303.931 157.418 304.06 157.559 304.136C157.699 304.213 157.864 304.232 158.019 304.19C158.174 304.147 158.306 304.046 158.387 303.908C158.469 303.77 158.494 303.606 158.456 303.45V303.45Z" fill="#5A5A5A" fill-opacity="0.6"/>
<path d="M196.406 225.857C190.696 216.066 186.328 205.552 183.422 194.597C180.506 183.644 179.047 172.355 179.084 161.021C179.125 149.688 180.501 138.071 184.015 127.263C187.35 117.005 193.324 107.223 202.809 101.626C207.647 98.7884 213.169 97.3301 218.777 97.4093C224.699 97.4654 230.54 99.0244 235.877 101.549C241.104 104.021 245.883 107.353 250.298 111.067C254.507 114.602 258.435 118.46 262.047 122.604C269.202 130.832 275.047 140.359 278.312 150.805C281.715 161.691 282.311 173.599 279.153 184.617C276.12 195.199 269.476 204.219 261.318 211.465C252.503 219.295 242.06 224.985 231.53 230.15C228.895 231.443 226.245 232.706 223.595 233.969C222.877 234.311 223.503 235.377 224.219 235.036C235.322 229.744 246.535 224.406 256.433 217.018C265.167 210.499 272.951 202.315 277.583 192.346C282.48 181.805 283.484 169.818 281.454 158.445C279.47 147.329 274.493 136.926 267.832 127.865C264.522 123.383 260.844 119.185 256.835 115.315C252.722 111.253 248.232 107.593 243.424 104.384C233.569 97.9428 221.245 94.0529 209.566 97.3709C199.183 100.321 191.192 108.64 186.437 118.068C183.776 123.345 181.982 129.02 180.706 134.778C179.461 140.453 178.624 146.21 178.201 152.005C176.504 175.126 181.036 198.281 191.325 219.057C192.578 221.576 193.916 224.051 195.339 226.481C195.425 226.616 195.56 226.713 195.715 226.751C195.871 226.789 196.036 226.765 196.174 226.684C196.313 226.603 196.414 226.472 196.458 226.318C196.501 226.163 196.483 225.998 196.406 225.857Z" fill="#5A5A5A" fill-opacity="0.6"/>
<path d="M188.578 213.909C182.868 204.118 178.5 193.604 175.593 182.648C172.677 171.696 171.219 160.407 171.256 149.073C171.297 137.739 172.673 126.122 176.187 115.315C179.521 105.057 185.496 95.2751 194.981 89.6777C199.818 86.8402 205.341 85.3819 210.948 85.4611C216.871 85.5172 222.712 87.0762 228.049 89.6005C233.275 92.0729 238.055 95.4047 242.47 99.1189C246.679 102.654 250.607 106.511 254.218 110.656C261.373 118.884 267.219 128.411 270.484 138.857C273.887 149.743 274.483 161.651 271.325 172.669C268.292 183.251 261.648 192.271 253.49 199.517C244.675 207.347 234.232 213.037 223.702 218.202C221.066 219.494 218.416 220.757 215.767 222.02C215.049 222.362 215.675 223.428 216.39 223.088C227.494 217.796 238.707 212.458 248.605 205.069C257.338 198.55 265.123 190.367 269.754 180.398C274.652 169.856 275.655 157.87 273.626 146.497C271.642 135.381 266.665 124.978 260.004 115.917C256.694 111.435 253.016 107.237 249.007 103.367C244.894 99.3051 240.403 95.645 235.596 92.436C225.741 85.9945 213.417 82.1047 201.738 85.4227C191.355 88.3725 183.364 96.6916 178.609 106.12C175.948 111.397 174.154 117.072 172.878 122.83C171.633 128.505 170.796 134.262 170.373 140.056C168.676 163.178 173.208 186.332 183.497 207.108C184.75 209.628 186.088 212.103 187.511 214.532C187.597 214.668 187.731 214.765 187.887 214.803C188.043 214.841 188.208 214.817 188.346 214.736C188.484 214.655 188.586 214.524 188.629 214.369C188.673 214.215 188.654 214.05 188.578 213.909Z" fill="#5A5A5A" fill-opacity="0.6"/>
<path d="M76.0557 190.745C75.6197 190.13 75.3238 189.427 75.1889 188.685C75.0541 187.943 75.0834 187.181 75.2749 186.452C75.4665 185.723 75.8155 185.045 76.2975 184.466C76.7794 183.886 77.3826 183.419 78.0645 183.098L92.3516 138.363L102.302 143.532L85.1293 185.88C85.593 187.061 85.6072 188.371 85.1693 189.562C84.7314 190.753 83.8718 191.743 82.7534 192.342C81.6349 192.942 80.3354 193.111 79.1009 192.816C77.8665 192.522 76.783 191.785 76.0557 190.745H76.0557Z" fill="#FFB6B6"/>
<path d="M87.728 144.549C87.5912 144.247 87.5214 143.918 87.5232 143.586C87.5251 143.253 87.5986 142.925 87.7388 142.624L92.6323 132.103C93.1151 130.474 94.2243 129.102 95.7168 128.289C97.2093 127.476 98.9632 127.288 100.594 127.766C102.225 128.244 103.6 129.349 104.417 130.839C105.235 132.329 105.428 134.083 104.955 135.715L103.319 147.241C103.273 147.569 103.156 147.884 102.976 148.164C102.797 148.444 102.559 148.681 102.28 148.861C102 149.04 101.685 149.158 101.356 149.204C101.027 149.251 100.692 149.227 100.374 149.132L89.1785 145.815C88.8599 145.721 88.5654 145.559 88.315 145.341C88.0647 145.122 87.8644 144.852 87.728 144.549Z" fill="#2F2E41"/>
<path d="M129.003 146.325C125.602 155.228 126.471 164.567 130.659 174.244H100.994C102.186 167.359 101.702 160.96 97.2856 155.703L129.003 146.325Z" fill="#FFB6B6"/>
<path d="M94.2841 129.963L103.064 123.578L117.43 119.587L129.402 121.982L130.106 128.597C130.962 136.644 130.59 144.775 129.003 152.71L97.8756 159.893L94.6831 154.306C94.6831 154.306 87.4999 147.123 93.0869 139.142L94.2841 129.963Z" fill="#2F2E41"/>
<path d="M170.538 85.3019C170.734 86.0297 170.768 86.7917 170.638 87.5341C170.507 88.2765 170.216 88.9813 169.783 89.5988C169.351 90.2163 168.789 90.7316 168.136 91.1083C167.483 91.4849 166.755 91.7139 166.004 91.7789L137.104 128.793L129.56 120.497L160.341 86.722C160.315 85.4532 160.756 84.219 161.579 83.2534C162.403 82.2878 163.552 81.6577 164.809 81.4827C166.066 81.3076 167.343 81.5997 168.399 82.3036C169.455 83.0075 170.216 84.0743 170.538 85.3019Z" fill="#FFB6B6"/>
<path d="M143.584 124.592C143.607 124.924 143.559 125.256 143.442 125.567C143.325 125.878 143.143 126.16 142.907 126.394L134.672 134.568C133.654 135.93 132.138 136.833 130.457 137.078C128.775 137.324 127.064 136.893 125.7 135.879C124.335 134.866 123.428 133.353 123.178 131.671C122.927 129.99 123.354 128.278 124.363 126.911L129.891 116.666C130.049 116.374 130.267 116.119 130.533 115.919C130.798 115.719 131.103 115.578 131.427 115.506C131.752 115.435 132.088 115.434 132.413 115.504C132.737 115.574 133.043 115.713 133.309 115.912L142.662 122.902C142.928 123.101 143.148 123.355 143.308 123.647C143.467 123.938 143.561 124.261 143.584 124.592Z" fill="#2F2E41"/>
<path d="M94.3231 295.348H98.8689L101.032 277.813H94.3223L94.3231 295.348Z" fill="#FFB6B6"/>
<path d="M92.7833 293.105L99.9694 292.676V295.755L106.801 300.474C107.139 300.707 107.393 301.041 107.527 301.429C107.661 301.817 107.667 302.237 107.545 302.628C107.423 303.02 107.179 303.362 106.848 303.605C106.518 303.848 106.119 303.979 105.709 303.979H97.1533L95.6787 300.934L95.1029 303.979H91.8772L92.7833 293.105Z" fill="#2F2E41"/>
<path d="M126.46 295.348H131.006L133.169 277.813H126.459L126.46 295.348Z" fill="#FFB6B6"/>
<path d="M124.92 293.105L132.107 292.676V295.755L138.939 300.474C139.276 300.707 139.53 301.041 139.664 301.429C139.798 301.817 139.804 302.237 139.682 302.628C139.56 303.02 139.316 303.362 138.986 303.605C138.655 303.848 138.256 303.979 137.846 303.979H129.29L127.816 300.934L127.24 303.979H124.014L124.92 293.105Z" fill="#2F2E41"/>
<path d="M138.537 197.107V206.048L137.663 216.97C137.663 216.97 137.387 226.508 137.053 234.032C136.852 238.605 136.625 242.433 136.427 242.927C136.184 243.533 136.242 245.185 136.382 246.919C136.547 248.926 136.819 251.044 136.864 251.752C136.95 253.075 136.25 258.757 136.25 258.757C136.25 258.757 135.467 273.004 134.33 274.141C133.193 275.278 134.33 278.513 134.33 278.513C128.999 282.443 122.266 277.639 122.266 277.639C123.754 275.27 121.393 259.099 121.393 259.099C121.393 259.099 121.047 253.578 120.346 252.094C119.646 250.611 119.468 241.345 119.468 241.345V227.621C119.468 227.621 117.631 224.811 117.371 223.5C117.112 222.19 117.371 217.559 117.371 217.559L115.451 211.091L114.137 216.158C114.137 216.158 110.734 230.319 110.12 232.066C109.506 233.813 110.466 235.564 110.466 235.564C110.466 235.564 111.344 238.259 110.466 239.495C109.921 240.269 109.503 241.126 109.23 242.033C109.23 242.033 108.781 247.191 107.994 249.037C107.207 250.883 106.511 253.157 106.511 253.157C106.511 253.157 106.696 256.643 105.909 257.43C105.122 258.217 104.863 262.152 104.863 262.152C104.863 262.152 105.036 266.605 103.985 268.179C102.934 269.753 102.934 278.669 102.934 278.669C101.112 279.838 99.0126 280.503 96.8496 280.595C94.6867 280.687 92.5381 280.203 90.6234 279.193C90.6234 279.193 91.6617 278.22 90.8747 273.688C90.0879 269.156 91.4392 256.816 91.4392 256.816C91.4392 256.816 91.2662 253.685 92.1395 252.284C93.013 250.883 91.6987 248.176 92.049 246.952C92.3992 245.729 93.4498 239.083 93.4498 239.083C93.4498 239.083 93.013 222.738 93.013 221.865C92.9097 220.31 92.489 218.793 91.777 217.407C90.9902 216.01 91.777 205.87 91.777 205.87C91.777 205.87 93.631 200.63 93.013 199.492C92.395 198.355 93.425 196.345 93.425 196.345C93.425 196.345 92.465 193.984 93.425 193.547C94.3851 193.11 94.5623 191.363 94.5623 191.363L95.2296 182.884C95.2296 182.884 95.4811 179.036 96.2804 178.863C97.0797 178.69 96.7294 177.206 97.5164 176.156C97.8998 175.446 98.1643 174.677 98.2992 173.882C98.4104 173.395 98.5134 172.889 98.6 172.402C98.8472 171.084 98.9997 169.947 98.9997 169.947C104.158 174.232 131.281 171.228 131.31 171.228C133.032 171.603 135.08 177.581 136.559 182.793C137.874 187.451 138.539 192.267 138.537 197.107Z" fill="#2F2E41"/>
<path d="M118.808 108.337C120.785 101.834 117.116 94.9588 110.613 92.9818C104.109 91.0048 97.2345 94.6742 95.2575 101.178C93.2805 107.681 96.9499 114.556 103.453 116.533C109.957 118.51 116.831 114.84 118.808 108.337Z" fill="#FFB6B6"/>
<path d="M93.1219 106.902L97.8877 105.91L98.7652 99.5859L100.411 105.386L102.688 104.912L103.2 101.222L104.16 104.605L121.086 101.083C120.737 99.4084 120.062 97.8184 119.099 96.4042C118.136 94.9901 116.904 93.7794 115.473 92.8414C114.042 91.9034 112.44 91.2565 110.759 90.9375C109.079 90.6184 107.351 90.6336 105.676 90.9822L103.223 91.4926C99.8402 92.1965 96.8755 94.2155 94.9811 97.1053C93.0867 99.9952 92.418 103.519 93.1219 106.902Z" fill="#2F2E41"/>
<path d="M141.878 14.3583L141.847 14.4184C135.631 11.5548 128.552 11.192 122.076 13.4052C115.601 15.6183 110.224 20.2378 107.061 26.3065C103.898 32.3752 103.191 39.4281 105.086 46.004C106.981 52.5799 111.333 58.1748 117.241 61.6296L117.21 61.6896L164.541 86.358L189.209 39.0266C190.833 35.9184 191.828 32.5207 192.138 29.0277C192.448 25.5346 192.067 22.0147 191.015 18.6692C189.964 15.3237 188.264 12.2182 186.012 9.53026C183.759 6.84227 181 4.62451 177.89 3.00375C174.78 1.383 171.381 0.391023 167.888 0.0845405C164.395 -0.221942 160.875 0.163076 157.531 1.21758C154.186 2.27209 151.082 3.97542 148.397 6.23018C145.711 8.48495 143.496 11.2469 141.878 14.3583Z" fill="#6B08A5"/>
<path d="M184.047 285.961L184.039 285.976C182.468 285.252 180.679 285.16 179.042 285.72C177.405 286.279 176.046 287.447 175.247 288.981C174.448 290.514 174.269 292.297 174.748 293.959C175.227 295.621 176.327 297.035 177.82 297.908L177.812 297.924L189.775 304.159L196.01 292.196C196.42 291.41 196.672 290.551 196.75 289.668C196.829 288.785 196.732 287.896 196.467 287.05C196.201 286.204 195.771 285.419 195.202 284.74C194.633 284.061 193.935 283.5 193.149 283.09C192.363 282.681 191.504 282.43 190.621 282.352C189.738 282.275 188.848 282.372 188.003 282.639C187.158 282.906 186.373 283.336 185.694 283.906C185.016 284.476 184.456 285.174 184.047 285.961Z" fill="#FF6584"/>
<path d="M25.3526 134.275V134.343C18.5172 134.676 12.072 137.626 7.35229 142.582C2.63256 147.538 -3.17772e-06 154.119 0 160.962C3.17773e-06 167.806 2.63258 174.387 7.35232 179.343C12.0721 184.298 18.5172 187.248 25.3526 187.582V187.649L78.7266 187.649L78.7266 134.275C78.73 130.768 78.0422 127.295 76.7025 124.055C75.3629 120.814 73.3977 117.869 70.9192 115.388C68.4408 112.907 65.4977 110.939 62.2582 109.596C59.0187 108.254 55.5463 107.562 52.0396 107.562C48.5328 107.562 45.0605 108.254 41.821 109.596C38.5815 110.939 35.6384 112.907 33.1599 115.388C30.6815 117.869 28.7163 120.814 27.3766 124.055C26.037 127.295 25.3492 130.768 25.3526 134.275V134.275Z" fill="#6B08A5"/>
<path d="M274.096 304.815H7.40122C7.27111 304.815 7.14634 304.763 7.05434 304.671C6.96234 304.579 6.91064 304.454 6.91064 304.324C6.91064 304.194 6.96234 304.069 7.05434 303.977C7.14634 303.885 7.27111 303.833 7.40122 303.833H274.096C274.226 303.833 274.351 303.885 274.443 303.977C274.535 304.069 274.587 304.194 274.587 304.324C274.587 304.454 274.535 304.579 274.443 304.671C274.351 304.763 274.226 304.815 274.096 304.815Z" fill="#CACACA"/>
<path d="M231.634 184.698C237.086 184.664 242.357 182.74 246.548 179.254C250.815 175.666 253.624 170.641 254.445 165.126C254.927 162.009 254.772 158.826 253.988 155.77C253.94 155.617 253.835 155.489 253.694 155.412C253.553 155.335 253.388 155.316 253.234 155.359C253.079 155.401 252.947 155.502 252.866 155.64C252.784 155.778 252.759 155.943 252.796 156.099C254.117 161.287 253.521 166.778 251.118 171.563C249.271 175.14 246.478 178.142 243.042 180.24C239.606 182.338 235.66 183.453 231.634 183.462C231.474 183.468 231.322 183.535 231.211 183.651C231.099 183.766 231.037 183.92 231.037 184.08C231.037 184.24 231.099 184.394 231.211 184.51C231.322 184.625 231.474 184.693 231.634 184.698V184.698Z" fill="#5A5A5A" fill-opacity="0.6"/>
<path d="M136.192 24.153C132.675 20.8146 127.122 20.8234 123.06 23.1474C118.503 25.7554 116.436 31.1445 116.541 36.2045C116.658 41.8994 119.443 47.0559 123.038 51.3267C126.87 55.7642 131.329 59.6186 136.274 62.768C141.206 65.9798 146.542 68.5228 152.143 70.3303C152.833 70.5525 153.525 70.7632 154.222 70.9622C154.378 70.9994 154.542 70.9746 154.68 70.893C154.818 70.8115 154.919 70.6795 154.962 70.5249C155.004 70.3704 154.985 70.2053 154.909 70.0645C154.832 69.9238 154.704 69.8183 154.551 69.7703C143.795 66.6968 134.016 60.8947 126.163 52.9274C122.425 49.0987 119.103 44.4971 118.081 39.1414C117.179 34.4116 118.176 28.9199 121.842 25.5508C125.406 22.2757 131.643 21.5383 135.318 25.0271C135.895 25.5746 136.77 24.7021 136.192 24.1531V24.153Z" fill="white"/>
<path d="M24.4389 147.277C19.6885 146.687 15.2272 150.028 13.377 154.248C11.3021 158.981 12.701 164.436 15.7107 168.436C19.0252 172.841 24.0458 175.409 29.2939 176.772C34.9274 178.235 40.9076 178.63 46.7066 178.36C53.5619 178.042 60.3268 176.667 66.762 174.283C67.5013 174.009 67.1814 172.814 66.4335 173.091C55.7208 177.069 43.7951 178.324 32.5299 176.224C27.4944 175.285 22.366 173.494 18.6136 169.872C15.2136 166.589 12.8083 161.617 13.8316 156.816C14.8483 152.045 19.3842 147.885 24.4389 148.513C25.2263 148.611 25.2192 147.374 24.4389 147.277Z" fill="white"/>
<path d="M103.471 86.7316C104.62 82.1386 102.394 77.2121 98.9487 73.9651C95.5029 70.7182 91.0065 68.8521 86.5562 67.2364C83.0072 65.9479 78.8503 64.8272 75.6383 66.8116C73.0573 68.4063 71.9377 71.5037 70.4622 74.1546C67.6506 79.2061 63.1145 83.0767 57.6836 85.0586C52.2526 87.0404 46.2897 87.0009 40.8854 84.9475C42.7902 90.4773 49.3516 93.1821 55.1882 92.8065C61.0249 92.4309 66.4157 89.743 71.8528 87.5876C77.2899 85.4322 83.338 83.7669 88.9262 85.493C91.2848 86.2215 93.4299 87.5218 95.7652 88.3219C98.1005 89.1221 100.833 89.3604 102.915 88.0329" fill="#2F2E41"/>
<path d="M185.22 254.953L181.241 247.949C181.156 247.814 181.021 247.717 180.865 247.679C180.709 247.641 180.545 247.665 180.406 247.746C180.268 247.827 180.166 247.958 180.123 248.113C180.08 248.267 180.098 248.432 180.174 248.573L184.153 255.576C184.238 255.712 184.373 255.809 184.529 255.847C184.685 255.885 184.849 255.861 184.988 255.78C185.126 255.699 185.228 255.568 185.271 255.413C185.314 255.259 185.296 255.094 185.22 254.953Z" fill="#5A5A5A" fill-opacity="0.6"/>
</g>
<defs>
<clipPath id="clip0_515_38">
<rect width="282.442" height="304.815" fill="white"/>
</clipPath>
</defs>
</svg>
