<svg width="1076" height="681" viewBox="0 0 1076 681" fill="none" xmlns="http://www.w3.org/2000/svg">
<g clip-path="url(#clip0_504_115)">
<path d="M900.141 53.265H1.00122C2.27118 46.0634 4.75136 39.2503 8.21771 33.0796C19.2891 13.3573 40.4009 0 64.5905 0H836.552C860.727 0 881.853 13.3573 892.91 33.0796C896.376 39.2503 898.871 46.0634 900.141 53.265Z" fill="#F2F2F2"/>
<path d="M1075.06 677.877C1075.06 678.863 1074.26 679.655 1073.28 679.655H703.8C702.814 679.655 702.022 678.863 702.022 677.877C702.022 677.399 702.202 676.981 702.5 676.667H836.552C839.406 676.667 842.2 676.473 844.949 676.099H1073.28C1074.26 676.099 1075.06 676.891 1075.06 677.877Z" fill="#3F3D56"/>
<path d="M900.141 53.265C898.871 46.0634 896.376 39.2503 892.91 33.0796C881.853 13.3573 860.727 0 836.552 0H64.5904C40.4008 0 19.289 13.3573 8.2176 33.0796C4.75125 39.2503 2.27108 46.0634 1.00111 53.265C0.343705 56.9405 0 60.7206 0 64.5903V615.065C0 650.685 28.9708 679.655 64.5904 679.655H836.552C843.933 679.655 851.045 678.4 857.664 676.099C882.944 667.344 901.142 643.289 901.142 615.065V64.5903C901.142 60.7356 900.799 56.9405 900.141 53.265ZM898.154 615.065C898.154 646.232 874.995 672.006 844.949 676.099C842.2 676.473 839.406 676.667 836.552 676.667H156.344C71.6426 676.667 2.98822 607.998 2.98822 523.297V64.5903C2.98822 60.7206 3.34679 56.9405 4.03411 53.265C5.37884 46.0036 7.99353 39.2054 11.654 33.0796C22.3967 15.0607 42.0891 2.98822 64.5904 2.98822H836.552C859.053 2.98822 878.745 15.0607 889.488 33.0796C893.149 39.2054 895.763 46.0036 897.108 53.265C897.795 56.9405 898.154 60.7206 898.154 64.5903V615.065Z" fill="#3F3D56"/>
<path d="M317.178 296.659V318H314.372V302.087L307.279 318H305.305L298.181 302.056V318H295.375V296.659H298.397L306.292 314.299L314.187 296.659H317.178ZM320.889 309.488C320.889 307.761 321.239 306.25 321.938 304.955C322.637 303.639 323.593 302.621 324.806 301.902C326.04 301.182 327.407 300.822 328.908 300.822C330.388 300.822 331.673 301.141 332.763 301.778C333.852 302.416 334.665 303.217 335.199 304.184V301.1H338.036V318H335.199V314.854C334.644 315.841 333.811 316.664 332.701 317.322C331.611 317.959 330.337 318.278 328.877 318.278C327.376 318.278 326.019 317.907 324.806 317.167C323.593 316.427 322.637 315.389 321.938 314.052C321.239 312.716 320.889 311.195 320.889 309.488ZM335.199 309.519C335.199 308.244 334.942 307.134 334.428 306.188C333.914 305.243 333.215 304.523 332.331 304.03C331.467 303.516 330.511 303.259 329.463 303.259C328.414 303.259 327.458 303.505 326.595 303.999C325.731 304.492 325.042 305.212 324.528 306.157C324.014 307.103 323.757 308.213 323.757 309.488C323.757 310.783 324.014 311.914 324.528 312.881C325.042 313.826 325.731 314.556 326.595 315.07C327.458 315.564 328.414 315.81 329.463 315.81C330.511 315.81 331.467 315.564 332.331 315.07C333.215 314.556 333.914 313.826 334.428 312.881C334.942 311.914 335.199 310.794 335.199 309.519ZM352.216 318L345.585 310.537V318H342.779V295.178H345.585V308.594L352.093 301.1H356.009L348.053 309.519L356.04 318H352.216ZM374.071 308.902C374.071 309.437 374.04 310.002 373.978 310.598H360.47C360.573 312.264 361.138 313.569 362.166 314.515C363.215 315.44 364.479 315.903 365.96 315.903C367.173 315.903 368.18 315.625 368.982 315.07C369.804 314.495 370.38 313.734 370.709 312.788H373.731C373.279 314.412 372.374 315.738 371.017 316.766C369.661 317.774 367.975 318.278 365.96 318.278C364.356 318.278 362.917 317.918 361.642 317.198C360.388 316.479 359.401 315.461 358.682 314.145C357.962 312.809 357.602 311.267 357.602 309.519C357.602 307.771 357.952 306.24 358.651 304.924C359.35 303.608 360.326 302.601 361.58 301.902C362.855 301.182 364.315 300.822 365.96 300.822C367.563 300.822 368.982 301.172 370.216 301.871C371.449 302.57 372.395 303.536 373.053 304.77C373.731 305.983 374.071 307.36 374.071 308.902ZM371.172 308.316C371.172 307.247 370.935 306.332 370.462 305.572C369.989 304.79 369.342 304.204 368.519 303.814C367.718 303.402 366.823 303.197 365.836 303.197C364.418 303.197 363.205 303.649 362.197 304.554C361.21 305.458 360.645 306.713 360.501 308.316H371.172ZM388.742 296.505V310.105C388.742 312.017 389.204 313.436 390.13 314.361C391.075 315.286 392.381 315.749 394.046 315.749C395.691 315.749 396.976 315.286 397.901 314.361C398.847 313.436 399.32 312.017 399.32 310.105V296.505H402.126V310.074C402.126 311.863 401.766 313.374 401.047 314.608C400.327 315.821 399.351 316.725 398.117 317.322C396.904 317.918 395.537 318.216 394.015 318.216C392.494 318.216 391.116 317.918 389.883 317.322C388.67 316.725 387.703 315.821 386.984 314.608C386.285 313.374 385.935 311.863 385.935 310.074V296.505H388.742ZM412.791 318.278C411.496 318.278 410.334 318.062 409.306 317.63C408.278 317.178 407.466 316.561 406.87 315.78C406.273 314.978 405.944 314.063 405.883 313.035H408.782C408.864 313.878 409.255 314.566 409.954 315.101C410.673 315.636 411.609 315.903 412.76 315.903C413.829 315.903 414.672 315.666 415.289 315.194C415.906 314.721 416.214 314.124 416.214 313.405C416.214 312.665 415.885 312.12 415.227 311.77C414.569 311.4 413.552 311.04 412.174 310.691C410.92 310.362 409.892 310.033 409.09 309.704C408.309 309.355 407.63 308.851 407.055 308.193C406.5 307.514 406.222 306.63 406.222 305.541C406.222 304.677 406.479 303.886 406.993 303.166C407.507 302.446 408.237 301.881 409.183 301.47C410.128 301.038 411.208 300.822 412.421 300.822C414.292 300.822 415.803 301.295 416.954 302.241C418.106 303.187 418.722 304.482 418.805 306.127H415.998C415.937 305.243 415.577 304.533 414.919 303.999C414.281 303.464 413.418 303.197 412.328 303.197C411.321 303.197 410.519 303.413 409.923 303.844C409.326 304.276 409.028 304.842 409.028 305.541C409.028 306.096 409.203 306.558 409.553 306.928C409.923 307.278 410.375 307.566 410.91 307.792C411.465 307.998 412.225 308.234 413.192 308.501C414.405 308.83 415.392 309.159 416.152 309.488C416.913 309.797 417.561 310.269 418.095 310.907C418.65 311.544 418.938 312.377 418.959 313.405C418.959 314.33 418.702 315.163 418.188 315.903C417.674 316.643 416.944 317.229 415.998 317.661C415.073 318.072 414.004 318.278 412.791 318.278ZM444.373 296.505V298.787H438.513V318H435.707V298.787H429.816V296.505H444.373ZM456.216 300.791C457.491 300.791 458.642 301.069 459.67 301.624C460.698 302.159 461.5 302.971 462.075 304.06C462.672 305.15 462.97 306.476 462.97 308.039V318H460.194V308.44C460.194 306.754 459.773 305.469 458.93 304.585C458.087 303.68 456.935 303.228 455.476 303.228C453.995 303.228 452.813 303.69 451.929 304.615C451.066 305.541 450.634 306.887 450.634 308.656V318H447.827V295.178H450.634V303.505C451.189 302.642 451.95 301.974 452.916 301.501C453.903 301.028 455.003 300.791 456.216 300.791ZM482.974 308.902C482.974 309.437 482.943 310.002 482.881 310.598H469.374C469.476 312.264 470.042 313.569 471.07 314.515C472.118 315.44 473.383 315.903 474.863 315.903C476.076 315.903 477.084 315.625 477.885 315.07C478.708 314.495 479.284 313.734 479.612 312.788H482.635C482.182 314.412 481.278 315.738 479.921 316.766C478.564 317.774 476.878 318.278 474.863 318.278C473.259 318.278 471.82 317.918 470.546 317.198C469.291 316.479 468.305 315.461 467.585 314.145C466.865 312.809 466.506 311.267 466.506 309.519C466.506 307.771 466.855 306.24 467.554 304.924C468.253 303.608 469.23 302.601 470.484 301.902C471.759 301.182 473.218 300.822 474.863 300.822C476.467 300.822 477.885 301.172 479.119 301.871C480.353 302.57 481.298 303.536 481.956 304.77C482.635 305.983 482.974 307.36 482.974 308.902ZM480.075 308.316C480.075 307.247 479.839 306.332 479.366 305.572C478.893 304.79 478.245 304.204 477.423 303.814C476.621 303.402 475.727 303.197 474.74 303.197C473.321 303.197 472.108 303.649 471.101 304.554C470.114 305.458 469.548 306.713 469.404 308.316H480.075ZM501.716 318.216C500.297 318.216 499.023 317.969 497.892 317.476C496.782 316.962 495.908 316.263 495.27 315.379C494.633 314.474 494.304 313.436 494.284 312.264H497.275C497.378 313.271 497.789 314.124 498.509 314.823C499.249 315.502 500.318 315.841 501.716 315.841C503.052 315.841 504.101 315.512 504.862 314.854C505.643 314.176 506.034 313.312 506.034 312.264C506.034 311.441 505.807 310.773 505.355 310.259C504.903 309.745 504.337 309.355 503.659 309.087C502.98 308.82 502.066 308.532 500.914 308.224C499.496 307.854 498.354 307.484 497.491 307.114C496.648 306.743 495.918 306.168 495.301 305.386C494.705 304.585 494.407 303.516 494.407 302.179C494.407 301.007 494.705 299.969 495.301 299.064C495.898 298.16 496.73 297.461 497.799 296.967C498.889 296.474 500.133 296.227 501.531 296.227C503.546 296.227 505.191 296.731 506.465 297.738C507.761 298.746 508.49 300.082 508.655 301.747H505.571C505.468 300.925 505.036 300.205 504.276 299.589C503.515 298.951 502.508 298.633 501.253 298.633C500.081 298.633 499.125 298.941 498.385 299.558C497.645 300.154 497.275 300.997 497.275 302.087C497.275 302.868 497.491 303.505 497.923 303.999C498.375 304.492 498.92 304.872 499.557 305.14C500.215 305.386 501.13 305.674 502.302 306.003C503.721 306.394 504.862 306.785 505.725 307.175C506.589 307.545 507.329 308.131 507.946 308.933C508.562 309.714 508.871 310.783 508.871 312.14C508.871 313.189 508.593 314.176 508.038 315.101C507.483 316.026 506.661 316.777 505.571 317.352C504.481 317.928 503.196 318.216 501.716 318.216ZM520.371 318.278C518.788 318.278 517.349 317.918 516.054 317.198C514.779 316.479 513.772 315.461 513.032 314.145C512.312 312.809 511.952 311.267 511.952 309.519C511.952 307.792 512.322 306.271 513.062 304.955C513.823 303.618 514.851 302.601 516.146 301.902C517.442 301.182 518.891 300.822 520.495 300.822C522.099 300.822 523.548 301.182 524.843 301.902C526.139 302.601 527.156 303.608 527.896 304.924C528.657 306.24 529.038 307.771 529.038 309.519C529.038 311.267 528.647 312.809 527.866 314.145C527.105 315.461 526.067 316.479 524.751 317.198C523.435 317.918 521.975 318.278 520.371 318.278ZM520.371 315.81C521.379 315.81 522.325 315.574 523.209 315.101C524.093 314.628 524.802 313.919 525.337 312.973C525.892 312.027 526.169 310.876 526.169 309.519C526.169 308.162 525.902 307.011 525.368 306.065C524.833 305.119 524.134 304.42 523.27 303.968C522.407 303.495 521.471 303.259 520.464 303.259C519.436 303.259 518.49 303.495 517.627 303.968C516.784 304.42 516.105 305.119 515.591 306.065C515.077 307.011 514.82 308.162 514.82 309.519C514.82 310.897 515.067 312.058 515.56 313.004C516.074 313.95 516.753 314.659 517.596 315.132C518.439 315.584 519.364 315.81 520.371 315.81ZM535.534 295.178V318H532.727V295.178H535.534ZM555.305 301.1V318H552.499V315.502C551.964 316.365 551.214 317.044 550.247 317.537C549.302 318.01 548.253 318.247 547.102 318.247C545.786 318.247 544.604 317.979 543.555 317.445C542.507 316.89 541.674 316.067 541.057 314.978C540.461 313.888 540.163 312.562 540.163 310.999V301.1H542.938V310.629C542.938 312.295 543.36 313.58 544.203 314.484C545.046 315.368 546.197 315.81 547.657 315.81C549.158 315.81 550.34 315.348 551.203 314.423C552.067 313.497 552.499 312.151 552.499 310.383V301.1H555.305ZM563.467 303.413V313.374C563.467 314.196 563.642 314.782 563.991 315.132C564.341 315.461 564.947 315.625 565.811 315.625H567.877V318H565.348C563.786 318 562.614 317.64 561.832 316.921C561.051 316.201 560.66 315.019 560.66 313.374V303.413H558.471V301.1H560.66V296.844H563.467V301.1H567.877V303.413H563.467ZM572.727 298.355C572.192 298.355 571.74 298.17 571.37 297.8C571 297.43 570.815 296.977 570.815 296.443C570.815 295.908 571 295.456 571.37 295.086C571.74 294.716 572.192 294.531 572.727 294.531C573.241 294.531 573.673 294.716 574.022 295.086C574.392 295.456 574.577 295.908 574.577 296.443C574.577 296.977 574.392 297.43 574.022 297.8C573.673 298.17 573.241 298.355 572.727 298.355ZM574.084 301.1V318H571.277V301.1H574.084ZM586.238 318.278C584.654 318.278 583.215 317.918 581.92 317.198C580.645 316.479 579.638 315.461 578.898 314.145C578.178 312.809 577.818 311.267 577.818 309.519C577.818 307.792 578.188 306.271 578.929 304.955C579.689 303.618 580.717 302.601 582.012 301.902C583.308 301.182 584.757 300.822 586.361 300.822C587.965 300.822 589.414 301.182 590.709 301.902C592.005 302.601 593.022 303.608 593.763 304.924C594.523 306.24 594.904 307.771 594.904 309.519C594.904 311.267 594.513 312.809 593.732 314.145C592.971 315.461 591.933 316.479 590.617 317.198C589.301 317.918 587.841 318.278 586.238 318.278ZM586.238 315.81C587.245 315.81 588.191 315.574 589.075 315.101C589.959 314.628 590.668 313.919 591.203 312.973C591.758 312.027 592.035 310.876 592.035 309.519C592.035 308.162 591.768 307.011 591.234 306.065C590.699 305.119 590 304.42 589.137 303.968C588.273 303.495 587.338 303.259 586.33 303.259C585.302 303.259 584.356 303.495 583.493 303.968C582.65 304.42 581.971 305.119 581.457 306.065C580.943 307.011 580.686 308.162 580.686 309.519C580.686 310.897 580.933 312.058 581.427 313.004C581.941 313.95 582.619 314.659 583.462 315.132C584.305 315.584 585.23 315.81 586.238 315.81ZM606.828 300.791C608.884 300.791 610.549 301.418 611.824 302.673C613.099 303.906 613.736 305.695 613.736 308.039V318H610.96V308.44C610.96 306.754 610.539 305.469 609.696 304.585C608.853 303.68 607.702 303.228 606.242 303.228C604.761 303.228 603.579 303.69 602.695 304.615C601.832 305.541 601.4 306.887 601.4 308.656V318H598.594V301.1H601.4V303.505C601.955 302.642 602.706 301.974 603.651 301.501C604.618 301.028 605.676 300.791 606.828 300.791Z" fill="#505050"/>
<path d="M888.266 318.121L883.21 299.583L905.961 291.156L908.489 308.009L888.266 318.121Z" fill="#FFB6B6"/>
<path opacity="0.1" d="M888.266 318.121L883.21 299.583L896.608 293.931L892.446 315.786L888.266 318.121Z" fill="black"/>
<path d="M821.663 477.002C817.318 474.416 817.088 466.785 821.151 459.956C822.93 456.966 825.236 454.627 827.632 453.157L830.018 449.259L860.202 395.148C860.202 395.148 873.414 344.115 878.794 337.945C884.173 331.774 891.95 333.228 891.95 333.228L898.849 339.355L874.227 411.637L843.843 454.425L839.771 460.38C839.623 463.186 838.667 466.329 836.888 469.319C832.825 476.148 826.009 479.587 821.663 477.002Z" fill="#FFB6B6"/>
<path d="M887.022 312.826C887.022 312.826 896.622 312.455 902.679 319.912C908.737 327.37 877.003 411.425 877.003 411.425L851.156 410.51L887.022 312.826Z" fill="#6B08A5"/>
<path d="M889.53 302.532C902.56 302.532 913.124 291.969 913.124 278.938C913.124 265.907 902.56 255.344 889.53 255.344C876.499 255.344 865.935 265.907 865.935 278.938C865.935 291.969 876.499 302.532 889.53 302.532Z" fill="#FFB6B6"/>
<path d="M834.336 621.476L818.325 661.081L809.056 651.812L805.686 634.116L819.168 617.263L834.336 621.476Z" fill="#FFB6B6"/>
<path d="M984.328 607.151L1000.34 625.69L992.755 640.857L975.902 638.329L967.475 614.735L984.328 607.151Z" fill="#FFB6B6"/>
<path d="M877.732 385.955L875.626 420.082L927.87 410.813L924.5 389.747L877.732 385.955Z" fill="#FFB6B6"/>
<path d="M875.204 420.503L927.87 403.229C927.87 403.229 947.251 441.991 926.185 466.428C905.119 490.865 835.178 629.903 835.178 629.903L814.112 619.791L844.448 531.312L878.154 449.575L875.204 420.503Z" fill="#2F2E41"/>
<path d="M926.185 452.103L946.409 540.582L988.541 608.837L966.632 621.476L907.647 540.582L888.266 478.225L926.185 452.103Z" fill="#2F2E41"/>
<path d="M798.102 630.746H783.508C783.508 630.746 766.479 624.004 762.488 630.746C758.497 637.487 780.295 656.606 780.295 656.606C780.295 656.606 810.742 673.721 814.955 672.878C819.168 672.036 820.853 661.924 820.853 661.924L825.909 650.127L818.325 652.655C818.325 652.655 808.214 646.756 810.742 636.644L798.102 630.746Z" fill="#2F2E41"/>
<path d="M996.968 628.218V619.791L1006.76 628.218C1006.76 628.218 1023.09 634.116 1010.45 646.756C997.81 659.396 981.8 672.878 981.8 672.878C981.8 672.878 956.521 679.619 954.835 672.036C953.15 664.452 954.835 661.383 954.835 661.383L964.104 656.868L972.531 634.959L986.013 636.644L996.968 628.218Z" fill="#2F2E41"/>
<path d="M896.692 283.572L889.108 282.73L875.204 268.826C875.204 268.826 862.565 275.567 862.565 270.511C862.565 246.917 876.89 247.759 888.687 246.074C900.484 244.389 899.22 243.968 903.012 250.287C904.746 253.178 911.017 254.922 911.017 254.922C911.017 254.922 922.814 238.912 928.713 258.293C934.612 277.674 927.028 337.502 932.926 342.558C938.825 347.614 908.707 352.662 911.969 332.864C915.231 313.065 921.129 282.73 917.758 275.988C914.388 269.247 913.545 270.932 913.545 270.932C917.722 269.227 920.452 299.267 904.702 300.738L904.276 286.1C904.276 286.1 901.748 278.516 896.692 283.572V283.572Z" fill="#2F2E41"/>
<path d="M886.159 312.644L911.439 302.532L945.145 403.65L875.794 401.124L869.55 370.944C869.55 370.944 863.453 355.236 868.509 345.967C873.565 336.697 886.159 312.644 886.159 312.644Z" fill="#6B08A5"/>
<path d="M951.941 482.03C946.903 482.463 942.267 476.396 941.587 468.479C941.289 465.013 941.799 461.768 942.889 459.177L942.555 454.619L935.533 393.058C935.533 393.058 922.463 342.702 923.236 334.553C924.009 326.404 925.23 324.24 925.23 324.24L934.407 325.197L956.541 398.278L956.8 450.756L956.963 457.968C958.478 460.335 959.534 463.446 959.832 466.912C960.512 474.829 956.979 481.597 951.941 482.03H951.941Z" fill="#FFB6B6"/>
<path d="M909.332 310.537C909.332 310.537 916.916 304.639 926.185 307.167C935.454 309.695 958.674 396.488 958.674 396.488L937.14 410.813L909.332 310.537Z" fill="#6B08A5"/>
<path d="M442.563 461.142H341.478C335.309 461.142 330.29 456.123 330.29 449.954V439.844C330.29 433.675 335.309 428.657 341.478 428.657H442.563C448.732 428.657 453.752 433.675 453.752 439.844V449.954C453.752 456.123 448.732 461.142 442.563 461.142Z" fill="#6B08A5"/>
<path d="M831.032 130.751H729.947C723.778 130.751 718.758 125.732 718.758 119.563V109.453C718.758 103.284 723.778 98.2661 729.947 98.2661H831.032C837.201 98.2661 842.22 103.284 842.22 109.453V119.563C842.22 125.732 837.201 130.751 831.032 130.751Z" fill="#6B08A5"/>
<path d="M592.524 461.889H491.439C484.857 461.889 479.503 456.534 479.503 449.954V439.844C479.503 433.263 484.857 427.91 491.439 427.91H592.524C599.105 427.91 604.459 433.263 604.459 439.844V449.954C604.459 456.534 599.105 461.889 592.524 461.889ZM491.439 430.898C486.505 430.898 482.491 434.911 482.491 439.844V449.954C482.491 454.887 486.505 458.901 491.439 458.901H592.524C597.457 458.901 601.471 454.887 601.471 449.954V439.844C601.471 434.911 597.457 430.898 592.524 430.898H491.439Z" fill="#6B08A5"/>
<path d="M552.656 123.473H485.421C480.478 123.473 476.457 119.452 476.457 114.508C476.457 109.565 480.478 105.544 485.421 105.544H552.656C557.6 105.544 561.621 109.565 561.621 114.508C561.621 119.452 557.6 123.473 552.656 123.473Z" fill="#E6E6E6"/>
<path d="M679.655 123.473H612.42C607.477 123.473 603.456 119.452 603.456 114.508C603.456 109.565 607.477 105.544 612.42 105.544H679.655C684.599 105.544 688.62 109.565 688.62 114.508C688.62 119.452 684.599 123.473 679.655 123.473Z" fill="#E6E6E6"/>
<path d="M611.379 557.894H289.763C286.774 557.894 284.343 555.463 284.343 552.474C284.343 549.485 286.774 547.053 289.763 547.053H611.379C614.368 547.053 616.799 549.485 616.799 552.474C616.799 555.463 614.368 557.894 611.379 557.894Z" fill="#E6E6E6"/>
<path d="M540.009 585.9H361.133C358.144 585.9 355.713 583.469 355.713 580.48C355.713 577.491 358.144 575.059 361.133 575.059H540.009C542.998 575.059 545.43 577.491 545.43 580.48C545.43 583.469 542.998 585.9 540.009 585.9Z" fill="#E6E6E6"/>
<path d="M614.367 31.9675H292.752C289.763 31.9675 287.331 29.536 287.331 26.547C287.331 23.5579 289.763 21.1265 292.752 21.1265H614.367C617.356 21.1265 619.788 23.5579 619.788 26.547C619.788 29.536 617.356 31.9675 614.367 31.9675Z" fill="white"/>
<path d="M657.637 14.8845L655.598 17.0732L664.781 25.6089H636.897C636.072 25.6089 635.403 26.2779 635.403 27.1031C635.403 27.9282 636.072 28.5972 636.897 28.5972H664.787L655.598 37.1357L657.637 39.3243L670.779 27.106L657.637 14.8845V14.8845Z" fill="#6B08A5"/>
<path d="M121.954 120.595C131.783 120.595 139.751 112.627 139.751 102.797C139.751 92.9682 131.783 85 121.954 85C113.041 85 105.658 91.5517 104.359 100.102C105.55 99.7836 106.801 99.614 108.092 99.614C116.059 99.614 122.518 106.072 122.518 114.039C122.518 116.389 121.956 118.607 120.959 120.567C121.288 120.586 121.62 120.595 121.954 120.595Z" fill="#6B08A5"/>
<path d="M145 120.599C145 123.496 142.651 125.844 139.754 125.844C136.857 125.844 134.509 123.496 134.509 120.599C134.509 117.702 136.857 115.353 139.754 115.353C142.651 115.353 145 117.702 145 120.599Z" fill="#6B08A5"/>
<path d="M108.093 127.185C115.324 127.185 121.186 121.323 121.186 114.092C121.186 106.861 115.324 100.999 108.093 100.999C100.862 100.999 95 106.861 95 114.092C95 121.323 100.862 127.185 108.093 127.185Z" fill="#6B08A5"/>
<path d="M158.626 231.181V258H155.124V245.841H141.464V258H137.963V231.181H141.464V242.955H155.124V231.181H158.626ZM163.296 247.38C163.296 245.225 163.732 243.34 164.605 241.724C165.477 240.082 166.67 238.812 168.183 237.914C169.722 237.017 171.428 236.568 173.301 236.568C175.148 236.568 176.751 236.965 178.11 237.76C179.47 238.556 180.483 239.556 181.15 240.762V236.914H184.69V258H181.15V254.075C180.458 255.307 179.419 256.333 178.033 257.153C176.674 257.949 175.083 258.346 173.262 258.346C171.39 258.346 169.696 257.885 168.183 256.961C166.67 256.038 165.477 254.742 164.605 253.075C163.732 251.407 163.296 249.509 163.296 247.38ZM181.15 247.418C181.15 245.828 180.83 244.443 180.188 243.263C179.547 242.083 178.675 241.185 177.572 240.569C176.494 239.928 175.301 239.607 173.993 239.607C172.685 239.607 171.492 239.915 170.415 240.531C169.337 241.147 168.478 242.044 167.837 243.224C167.195 244.404 166.875 245.79 166.875 247.38C166.875 248.996 167.195 250.407 167.837 251.613C168.478 252.793 169.337 253.703 170.415 254.345C171.492 254.96 172.685 255.268 173.993 255.268C175.301 255.268 176.494 254.96 177.572 254.345C178.675 253.703 179.547 252.793 180.188 251.613C180.83 250.407 181.15 249.009 181.15 247.418ZM198.457 254.768L204.998 236.914H208.731L200.458 258H196.379L188.106 236.914H191.877L198.457 254.768ZM231.415 246.649C231.415 247.316 231.377 248.021 231.3 248.765H214.446C214.575 250.843 215.28 252.472 216.563 253.652C217.871 254.806 219.449 255.383 221.296 255.383C222.809 255.383 224.066 255.037 225.066 254.345C226.093 253.626 226.811 252.677 227.221 251.497H230.992C230.428 253.524 229.299 255.178 227.606 256.461C225.913 257.718 223.81 258.346 221.296 258.346C219.295 258.346 217.499 257.897 215.909 257C214.344 256.102 213.113 254.832 212.215 253.19C211.317 251.523 210.868 249.599 210.868 247.418C210.868 245.238 211.304 243.327 212.176 241.685C213.048 240.043 214.267 238.787 215.832 237.914C217.422 237.017 219.243 236.568 221.296 236.568C223.296 236.568 225.066 237.004 226.606 237.876C228.145 238.748 229.325 239.954 230.146 241.493C230.992 243.006 231.415 244.725 231.415 246.649ZM227.798 245.918C227.798 244.584 227.503 243.442 226.913 242.493C226.323 241.518 225.515 240.787 224.489 240.3C223.489 239.787 222.373 239.53 221.142 239.53C219.372 239.53 217.858 240.095 216.601 241.223C215.37 242.352 214.665 243.917 214.485 245.918H227.798ZM262.149 252.036H250.451L248.297 258H244.603L254.299 231.335H258.339L267.997 258H264.304L262.149 252.036ZM261.148 249.188L256.3 235.644L251.452 249.188H261.148ZM282.497 236.529C285.062 236.529 287.14 237.312 288.731 238.876C290.321 240.415 291.116 242.647 291.116 245.572V258H287.653V246.072C287.653 243.968 287.127 242.365 286.076 241.262C285.024 240.133 283.587 239.569 281.766 239.569C279.919 239.569 278.444 240.146 277.341 241.3C276.264 242.455 275.725 244.135 275.725 246.341V258H272.223V236.914H275.725V239.915C276.418 238.838 277.354 238.004 278.534 237.414C279.74 236.824 281.061 236.529 282.497 236.529ZM310.596 231.181V258H307.094V231.181H310.596ZM315.255 247.38C315.255 245.225 315.691 243.34 316.564 241.724C317.436 240.082 318.629 238.812 320.142 237.914C321.681 237.017 323.4 236.568 325.298 236.568C326.94 236.568 328.466 236.952 329.877 237.722C331.288 238.466 332.365 239.453 333.109 240.685V229.526H336.649V258H333.109V254.037C332.417 255.294 331.391 256.333 330.031 257.153C328.671 257.949 327.081 258.346 325.26 258.346C323.387 258.346 321.681 257.885 320.142 256.961C318.629 256.038 317.436 254.742 316.564 253.075C315.691 251.407 315.255 249.509 315.255 247.38ZM333.109 247.418C333.109 245.828 332.789 244.443 332.147 243.263C331.506 242.083 330.634 241.185 329.531 240.569C328.453 239.928 327.261 239.607 325.952 239.607C324.644 239.607 323.451 239.915 322.374 240.531C321.296 241.147 320.437 242.044 319.796 243.224C319.154 244.404 318.834 245.79 318.834 247.38C318.834 248.996 319.154 250.407 319.796 251.613C320.437 252.793 321.296 253.703 322.374 254.345C323.451 254.96 324.644 255.268 325.952 255.268C327.261 255.268 328.453 254.96 329.531 254.345C330.634 253.703 331.506 252.793 332.147 251.613C332.789 250.407 333.109 249.009 333.109 247.418ZM361.806 246.649C361.806 247.316 361.767 248.021 361.69 248.765H344.837C344.965 250.843 345.67 252.472 346.953 253.652C348.261 254.806 349.839 255.383 351.686 255.383C353.199 255.383 354.456 255.037 355.457 254.345C356.483 253.626 357.201 252.677 357.611 251.497H361.382C360.818 253.524 359.689 255.178 357.996 256.461C356.303 257.718 354.2 258.346 351.686 258.346C349.685 258.346 347.889 257.897 346.299 257C344.734 256.102 343.503 254.832 342.605 253.19C341.707 251.523 341.258 249.599 341.258 247.418C341.258 245.238 341.694 243.327 342.566 241.685C343.439 240.043 344.657 238.787 346.222 237.914C347.812 237.017 349.634 236.568 351.686 236.568C353.687 236.568 355.457 237.004 356.996 237.876C358.535 238.748 359.715 239.954 360.536 241.493C361.382 243.006 361.806 244.725 361.806 246.649ZM358.189 245.918C358.189 244.584 357.894 243.442 357.304 242.493C356.714 241.518 355.906 240.787 354.88 240.3C353.879 239.787 352.763 239.53 351.532 239.53C349.762 239.53 348.248 240.095 346.991 241.223C345.76 242.352 345.055 243.917 344.875 245.918H358.189ZM365.119 247.38C365.119 245.225 365.555 243.34 366.428 241.724C367.3 240.082 368.493 238.812 370.006 237.914C371.545 237.017 373.251 236.568 375.124 236.568C376.971 236.568 378.574 236.965 379.933 237.76C381.293 238.556 382.306 239.556 382.973 240.762V236.914H386.513V258H382.973V254.075C382.281 255.307 381.242 256.333 379.856 257.153C378.497 257.949 376.906 258.346 375.085 258.346C373.213 258.346 371.519 257.885 370.006 256.961C368.493 256.038 367.3 254.742 366.428 253.075C365.555 251.407 365.119 249.509 365.119 247.38ZM382.973 247.418C382.973 245.828 382.653 244.443 382.011 243.263C381.37 242.083 380.498 241.185 379.395 240.569C378.317 239.928 377.124 239.607 375.816 239.607C374.508 239.607 373.315 239.915 372.238 240.531C371.16 241.147 370.301 242.044 369.66 243.224C369.018 244.404 368.698 245.79 368.698 247.38C368.698 248.996 369.018 250.407 369.66 251.613C370.301 252.793 371.16 253.703 372.238 254.345C373.315 254.96 374.508 255.268 375.816 255.268C377.124 255.268 378.317 254.96 379.395 254.345C380.498 253.703 381.37 252.793 382.011 251.613C382.653 250.407 382.973 249.009 382.973 247.418ZM419.196 231.181V234.028H411.885V258H408.384V234.028H401.034V231.181H419.196ZM432.702 258.346C430.727 258.346 428.932 257.897 427.315 257C425.725 256.102 424.468 254.832 423.545 253.19C422.647 251.523 422.198 249.599 422.198 247.418C422.198 245.264 422.66 243.365 423.583 241.724C424.532 240.056 425.815 238.787 427.431 237.914C429.047 237.017 430.855 236.568 432.856 236.568C434.857 236.568 436.666 237.017 438.282 237.914C439.898 238.787 441.168 240.043 442.091 241.685C443.04 243.327 443.515 245.238 443.515 247.418C443.515 249.599 443.027 251.523 442.053 253.19C441.104 254.832 439.808 256.102 438.166 257C436.525 257.897 434.703 258.346 432.702 258.346ZM432.702 255.268C433.959 255.268 435.139 254.973 436.242 254.383C437.345 253.793 438.23 252.908 438.897 251.728C439.59 250.548 439.936 249.112 439.936 247.418C439.936 245.725 439.603 244.289 438.936 243.109C438.269 241.929 437.397 241.057 436.319 240.492C435.242 239.902 434.075 239.607 432.818 239.607C431.535 239.607 430.355 239.902 429.278 240.492C428.226 241.057 427.38 241.929 426.738 243.109C426.097 244.289 425.776 245.725 425.776 247.418C425.776 249.137 426.084 250.587 426.7 251.767C427.341 252.947 428.188 253.832 429.239 254.422C430.291 254.986 431.445 255.268 432.702 255.268ZM471.806 244.186C472.781 244.34 473.666 244.738 474.461 245.379C475.282 246.02 475.923 246.816 476.385 247.765C476.872 248.714 477.116 249.727 477.116 250.805C477.116 252.164 476.77 253.395 476.077 254.498C475.384 255.576 474.371 256.435 473.037 257.077C471.729 257.692 470.177 258 468.381 258H458.377V231.181H467.997C469.818 231.181 471.37 231.488 472.652 232.104C473.935 232.694 474.897 233.502 475.538 234.528C476.18 235.554 476.5 236.709 476.5 237.991C476.5 239.582 476.064 240.903 475.192 241.955C474.346 242.981 473.217 243.725 471.806 244.186ZM461.879 242.763H467.766C469.407 242.763 470.677 242.378 471.575 241.608C472.473 240.839 472.922 239.774 472.922 238.415C472.922 237.055 472.473 235.99 471.575 235.221C470.677 234.451 469.382 234.067 467.689 234.067H461.879V242.763ZM468.074 255.114C469.818 255.114 471.177 254.704 472.152 253.883C473.127 253.062 473.614 251.92 473.614 250.458C473.614 248.97 473.101 247.803 472.075 246.957C471.049 246.085 469.677 245.648 467.958 245.648H461.879V255.114H468.074ZM501.214 246.649C501.214 247.316 501.176 248.021 501.099 248.765H484.245C484.374 250.843 485.079 252.472 486.362 253.652C487.67 254.806 489.247 255.383 491.094 255.383C492.608 255.383 493.865 255.037 494.865 254.345C495.891 253.626 496.61 252.677 497.02 251.497H500.791C500.227 253.524 499.098 255.178 497.405 256.461C495.712 257.718 493.608 258.346 491.094 258.346C489.094 258.346 487.298 257.897 485.707 257C484.143 256.102 482.911 254.832 482.014 253.19C481.116 251.523 480.667 249.599 480.667 247.418C480.667 245.238 481.103 243.327 481.975 241.685C482.847 240.043 484.066 238.787 485.63 237.914C487.221 237.017 489.042 236.568 491.094 236.568C493.095 236.568 494.865 237.004 496.404 237.876C497.944 238.748 499.124 239.954 499.944 241.493C500.791 243.006 501.214 244.725 501.214 246.649ZM497.597 245.918C497.597 244.584 497.302 243.442 496.712 242.493C496.122 241.518 495.314 240.787 494.288 240.3C493.288 239.787 492.172 239.53 490.94 239.53C489.17 239.53 487.657 240.095 486.4 241.223C485.169 242.352 484.463 243.917 484.284 245.918H497.597ZM524.598 258.269C522.828 258.269 521.238 257.962 519.827 257.346C518.442 256.705 517.351 255.832 516.556 254.729C515.761 253.601 515.351 252.305 515.325 250.843H519.057C519.186 252.1 519.699 253.165 520.596 254.037C521.52 254.883 522.854 255.307 524.598 255.307C526.266 255.307 527.574 254.896 528.523 254.075C529.498 253.229 529.985 252.151 529.985 250.843C529.985 249.817 529.703 248.983 529.139 248.342C528.574 247.701 527.869 247.213 527.022 246.88C526.176 246.546 525.034 246.187 523.598 245.802C521.828 245.341 520.404 244.879 519.327 244.417C518.275 243.955 517.364 243.237 516.595 242.262C515.851 241.262 515.479 239.928 515.479 238.261C515.479 236.798 515.851 235.503 516.595 234.374C517.339 233.246 518.377 232.373 519.711 231.758C521.071 231.142 522.623 230.834 524.367 230.834C526.881 230.834 528.933 231.463 530.524 232.72C532.14 233.977 533.051 235.644 533.256 237.722H529.408C529.28 236.696 528.741 235.798 527.792 235.028C526.843 234.233 525.586 233.836 524.021 233.836C522.559 233.836 521.366 234.22 520.442 234.99C519.519 235.734 519.057 236.786 519.057 238.145C519.057 239.12 519.327 239.915 519.865 240.531C520.43 241.147 521.109 241.621 521.905 241.955C522.726 242.262 523.867 242.622 525.329 243.032C527.099 243.519 528.523 244.007 529.6 244.494C530.678 244.956 531.601 245.687 532.371 246.687C533.14 247.662 533.525 248.996 533.525 250.689C533.525 251.997 533.179 253.229 532.486 254.383C531.794 255.537 530.767 256.474 529.408 257.192C528.048 257.91 526.445 258.269 524.598 258.269ZM557.917 246.649C557.917 247.316 557.879 248.021 557.802 248.765H540.948C541.076 250.843 541.782 252.472 543.064 253.652C544.373 254.806 545.95 255.383 547.797 255.383C549.311 255.383 550.568 255.037 551.568 254.345C552.594 253.626 553.312 252.677 553.723 251.497H557.494C556.929 253.524 555.801 255.178 554.108 256.461C552.415 257.718 550.311 258.346 547.797 258.346C545.796 258.346 544.001 257.897 542.41 257C540.845 256.102 539.614 254.832 538.716 253.19C537.819 251.523 537.37 249.599 537.37 247.418C537.37 245.238 537.806 243.327 538.678 241.685C539.55 240.043 540.769 238.787 542.333 237.914C543.924 237.017 545.745 236.568 547.797 236.568C549.798 236.568 551.568 237.004 553.107 237.876C554.646 238.748 555.826 239.954 556.647 241.493C557.494 243.006 557.917 244.725 557.917 246.649ZM554.3 245.918C554.3 244.584 554.005 243.442 553.415 242.493C552.825 241.518 552.017 240.787 550.991 240.3C549.99 239.787 548.875 239.53 547.643 239.53C545.873 239.53 544.36 240.095 543.103 241.223C541.872 242.352 541.166 243.917 540.987 245.918H554.3ZM581.778 246.649C581.778 247.316 581.74 248.021 581.663 248.765H564.809C564.937 250.843 565.643 252.472 566.925 253.652C568.234 254.806 569.811 255.383 571.658 255.383C573.172 255.383 574.429 255.037 575.429 254.345C576.455 253.626 577.173 252.677 577.584 251.497H581.355C580.79 253.524 579.662 255.178 577.969 256.461C576.276 257.718 574.172 258.346 571.658 258.346C569.657 258.346 567.862 257.897 566.271 257C564.707 256.102 563.475 254.832 562.577 253.19C561.68 251.523 561.231 249.599 561.231 247.418C561.231 245.238 561.667 243.327 562.539 241.685C563.411 240.043 564.63 238.787 566.194 237.914C567.785 237.017 569.606 236.568 571.658 236.568C573.659 236.568 575.429 237.004 576.968 237.876C578.507 238.748 579.687 239.954 580.508 241.493C581.355 243.006 581.778 244.725 581.778 246.649ZM578.161 245.918C578.161 244.584 577.866 243.442 577.276 242.493C576.686 241.518 575.878 240.787 574.852 240.3C573.852 239.787 572.736 239.53 571.504 239.53C569.734 239.53 568.221 240.095 566.964 241.223C565.733 242.352 565.027 243.917 564.848 245.918H578.161ZM596.674 236.529C599.239 236.529 601.317 237.312 602.907 238.876C604.498 240.415 605.293 242.647 605.293 245.572V258H601.83V246.072C601.83 243.968 601.304 242.365 600.252 241.262C599.2 240.133 597.764 239.569 595.943 239.569C594.096 239.569 592.621 240.146 591.518 241.3C590.44 242.455 589.901 244.135 589.901 246.341V258H586.4V236.914H589.901V239.915C590.594 238.838 591.53 238.004 592.71 237.414C593.916 236.824 595.237 236.529 596.674 236.529ZM633.43 258.269C630.942 258.269 628.672 257.692 626.619 256.538C624.567 255.358 622.938 253.729 621.733 251.651C620.553 249.548 619.963 247.188 619.963 244.571C619.963 241.955 620.553 239.607 621.733 237.53C622.938 235.426 624.567 233.797 626.619 232.643C628.672 231.463 630.942 230.873 633.43 230.873C635.944 230.873 638.227 231.463 640.279 232.643C642.331 233.797 643.947 235.413 645.127 237.491C646.307 239.569 646.897 241.929 646.897 244.571C646.897 247.213 646.307 249.573 645.127 251.651C643.947 253.729 642.331 255.358 640.279 256.538C638.227 257.692 635.944 258.269 633.43 258.269ZM633.43 255.23C635.303 255.23 636.983 254.793 638.471 253.921C639.984 253.049 641.164 251.805 642.011 250.189C642.883 248.573 643.319 246.7 643.319 244.571C643.319 242.416 642.883 240.544 642.011 238.953C641.164 237.337 639.997 236.093 638.509 235.221C637.021 234.349 635.328 233.913 633.43 233.913C631.532 233.913 629.839 234.349 628.351 235.221C626.863 236.093 625.683 237.337 624.811 238.953C623.964 240.544 623.541 242.416 623.541 244.571C623.541 246.7 623.964 248.573 624.811 250.189C625.683 251.805 626.863 253.049 628.351 253.921C629.864 254.793 631.557 255.23 633.43 255.23ZM661.794 236.529C664.359 236.529 666.437 237.312 668.027 238.876C669.618 240.415 670.413 242.647 670.413 245.572V258H666.95V246.072C666.95 243.968 666.424 242.365 665.372 241.262C664.32 240.133 662.884 239.569 661.063 239.569C659.216 239.569 657.741 240.146 656.638 241.3C655.56 242.455 655.021 244.135 655.021 246.341V258H651.52V236.914H655.021V239.915C655.714 238.838 656.65 238.004 657.83 237.414C659.036 236.824 660.357 236.529 661.794 236.529ZM782.484 230.834C785.024 230.834 787.076 231.553 788.64 232.989C790.205 234.426 790.988 236.35 790.988 238.761C790.988 241.454 790.154 243.455 788.487 244.763C786.819 246.046 784.562 246.687 781.714 246.687L781.599 250.343H778.559L778.405 244.263H779.521C782.061 244.263 784.049 243.878 785.485 243.109C786.922 242.339 787.64 240.89 787.64 238.761C787.64 237.222 787.178 236.003 786.255 235.105C785.331 234.208 784.087 233.759 782.522 233.759C780.932 233.759 779.675 234.195 778.752 235.067C777.854 235.913 777.405 237.081 777.405 238.568H774.096C774.096 237.029 774.442 235.683 775.135 234.528C775.827 233.348 776.802 232.438 778.059 231.796C779.342 231.155 780.817 230.834 782.484 230.834ZM780.06 258.231C779.393 258.231 778.829 258 778.367 257.538C777.905 257.077 777.674 256.512 777.674 255.845C777.674 255.178 777.905 254.614 778.367 254.152C778.829 253.69 779.393 253.46 780.06 253.46C780.701 253.46 781.24 253.69 781.676 254.152C782.138 254.614 782.369 255.178 782.369 255.845C782.369 256.512 782.138 257.077 781.676 257.538C781.24 258 780.701 258.231 780.06 258.231Z" fill="black"/>
<path d="M721.983 231.142L714.48 258H708.131L703.09 238.876L697.819 258L691.508 258.038L684.275 231.142H690.046L694.779 251.997L700.243 231.142H706.246L711.402 251.882L716.173 231.142H721.983ZM745.317 246.88C745.317 247.649 745.266 248.342 745.163 248.958H729.579C729.708 250.497 730.246 251.702 731.195 252.575C732.145 253.447 733.312 253.883 734.697 253.883C736.698 253.883 738.122 253.023 738.968 251.305H744.778C744.163 253.357 742.983 255.05 741.238 256.384C739.494 257.692 737.352 258.346 734.812 258.346C732.76 258.346 730.913 257.897 729.272 257C727.655 256.076 726.386 254.781 725.462 253.113C724.564 251.446 724.115 249.522 724.115 247.342C724.115 245.135 724.564 243.199 725.462 241.531C726.36 239.864 727.617 238.581 729.233 237.683C730.849 236.786 732.709 236.337 734.812 236.337C736.839 236.337 738.647 236.773 740.238 237.645C741.854 238.517 743.098 239.761 743.97 241.377C744.868 242.968 745.317 244.802 745.317 246.88ZM739.738 245.341C739.712 243.955 739.212 242.852 738.237 242.032C737.262 241.185 736.069 240.762 734.658 240.762C733.325 240.762 732.196 241.172 731.272 241.993C730.375 242.788 729.823 243.904 729.618 245.341H739.738ZM754.636 239.8C755.329 238.774 756.278 237.94 757.483 237.299C758.715 236.657 760.113 236.337 761.677 236.337C763.499 236.337 765.141 236.786 766.603 237.683C768.091 238.581 769.258 239.864 770.104 241.531C770.976 243.173 771.412 245.084 771.412 247.265C771.412 249.445 770.976 251.382 770.104 253.075C769.258 254.742 768.091 256.038 766.603 256.961C765.141 257.885 763.499 258.346 761.677 258.346C760.087 258.346 758.689 258.038 757.483 257.423C756.303 256.782 755.354 255.961 754.636 254.96V258H749.249V229.526H754.636V239.8ZM765.91 247.265C765.91 245.982 765.641 244.879 765.102 243.955C764.589 243.006 763.896 242.288 763.024 241.801C762.178 241.313 761.254 241.07 760.254 241.07C759.279 241.07 758.356 241.326 757.483 241.839C756.637 242.327 755.944 243.045 755.406 243.994C754.892 244.943 754.636 246.059 754.636 247.342C754.636 248.624 754.892 249.74 755.406 250.689C755.944 251.638 756.637 252.369 757.483 252.882C758.356 253.37 759.279 253.613 760.254 253.613C761.254 253.613 762.178 253.357 763.024 252.844C763.896 252.331 764.589 251.6 765.102 250.651C765.641 249.702 765.91 248.573 765.91 247.265Z" fill="#6B08A5"/>
</g>
<defs>
<clipPath id="clip0_504_115">
<rect width="1075.06" height="680.365" fill="white"/>
</clipPath>
</defs>
</svg>
