<svg width="624" height="752" viewBox="0 0 624 752" fill="none" xmlns="http://www.w3.org/2000/svg">
<path d="M201.815 329.092C201.815 329.092 215.686 343.426 216.917 351.507L204.85 358.457L190.923 334.051L183.577 301.471C182.887 300.78 182.392 299.919 182.143 298.976C181.893 298.032 181.898 297.039 182.156 296.097C182.414 295.156 182.917 294.299 183.613 293.615C184.309 292.93 185.174 292.442 186.12 292.2C187.066 291.958 188.059 291.971 188.998 292.237C189.938 292.502 190.79 293.012 191.469 293.714C192.148 294.416 192.629 295.285 192.863 296.232C193.098 297.18 193.077 298.173 192.804 299.11L201.815 329.092Z" fill="#FFB6B6"/>
<path d="M330.468 294.722C330.229 293.775 330.245 292.782 330.515 291.844C330.784 290.905 331.297 290.055 332.001 289.379C332.706 288.702 333.576 288.225 334.525 287.994C335.474 287.763 336.467 287.787 337.403 288.064C338.339 288.341 339.185 288.861 339.856 289.571C340.526 290.281 340.997 291.155 341.22 292.106C341.443 293.056 341.411 294.049 341.126 294.983C340.842 295.916 340.315 296.759 339.6 297.423L331.051 329.708L316.228 353.581L304.427 346.188C305.958 338.158 320.351 324.349 320.351 324.349L330.468 294.722Z" fill="#FFB6B6"/>
<path d="M110.656 411.823C110.57 392.796 117.872 374.863 125.989 357.989C134.377 340.554 143.926 323.449 148.666 304.546C151.433 294.136 152.106 283.281 150.646 272.609C150.36 270.706 147.468 271.515 147.753 273.407C150.66 292.714 144.377 311.944 136.554 329.357C128.796 346.625 119.124 363.052 113.071 381.06C109.59 390.947 107.76 401.341 107.656 411.823C107.67 412.212 107.834 412.581 108.114 412.851C108.393 413.121 108.767 413.272 109.156 413.272C109.545 413.272 109.919 413.121 110.199 412.851C110.479 412.581 110.643 412.212 110.656 411.823H110.656Z" fill="#EDEDED"/>
<path d="M197.844 418.208C197.203 410.108 202.921 403.35 209.67 399.632C218.235 394.914 228.602 395.319 238.067 395.6C247.778 395.987 257.504 395.525 267.133 394.217C289.874 390.913 311.513 382.284 330.288 369.032C349.062 355.781 364.441 338.282 375.172 317.962C384.074 301.108 390.341 281.675 387.838 262.428C387.535 260.088 387.104 257.766 386.547 255.473C386.09 253.598 383.196 254.392 383.654 256.271C388.315 275.392 382.972 295.42 374.5 312.681C366.713 328.504 356.091 342.767 343.161 354.76C329.62 367.321 313.756 377.116 296.46 383.595C287.478 386.954 278.187 389.42 268.721 390.957C259.127 392.442 249.414 393.008 239.712 392.648C230.067 392.368 219.845 391.859 210.78 395.762C203.686 398.817 197.101 404.869 195.273 412.604C194.84 414.438 194.695 416.329 194.844 418.208C194.996 420.119 197.997 420.136 197.844 418.208V418.208Z" fill="#EDEDED"/>
<path d="M503.387 140.907C499.857 139.317 496.387 137.787 493.067 136.377C492.567 136.167 492.067 135.947 491.567 135.737L491.507 135.707C488.517 134.427 485.52 133.174 482.517 131.947C480.417 131.087 478.327 130.237 476.227 129.407C475.407 129.067 474.587 128.747 473.757 128.427C472.427 127.897 471.087 127.377 469.757 126.857C468.657 126.427 467.547 126.007 466.447 125.587C465.177 125.097 463.907 124.627 462.647 124.147C461.147 123.587 459.65 123.034 458.157 122.487C458.142 122.479 458.124 122.475 458.107 122.477C456.977 122.057 455.847 121.647 454.727 121.247C439.517 115.767 424.087 110.867 408.847 106.677C408.297 106.527 407.747 106.377 407.197 106.227C406.247 105.967 405.297 105.707 404.347 105.447C402.667 104.997 400.98 104.557 399.287 104.127C397.697 103.707 396.097 103.307 394.497 102.907C393.087 102.557 391.677 102.207 390.257 101.867C388.867 101.527 387.477 101.197 386.077 100.877C381.907 99.897 377.744 98.9703 373.587 98.097C373.558 98.0888 373.527 98.0854 373.497 98.087C372.497 97.867 371.507 97.657 370.507 97.457C355.327 94.347 339.887 91.847 324.617 90.017C323.867 89.927 323.117 89.837 322.367 89.757H322.347C322.217 89.737 322.077 89.727 321.947 89.717C320.687 89.567 319.427 89.427 318.167 89.297C316.507 89.117 314.857 88.947 313.197 88.787C309.267 88.397 305.344 88.057 301.427 87.767C300.437 87.687 299.457 87.617 298.477 87.557C297.347 87.467 296.217 87.397 295.097 87.327C293.937 87.247 292.777 87.177 291.617 87.117C291.177 87.087 290.747 87.067 290.317 87.047C289.777 87.007 289.227 86.987 288.687 86.957C287.877 86.917 287.067 86.877 286.257 86.837C271.017 86.107 255.587 86.047 240.387 86.657C239.547 86.687 238.707 86.727 237.857 86.767H237.827C237.217 86.797 236.607 86.817 235.987 86.847C235.767 86.857 235.537 86.867 235.317 86.877C233.807 86.957 232.297 87.037 230.787 87.127C229.177 87.217 227.577 87.317 225.977 87.427C224.967 87.497 223.967 87.567 222.967 87.637C222.307 87.687 221.647 87.737 220.977 87.787C216.797 88.107 212.617 88.477 208.467 88.897C207.077 89.037 205.697 89.177 204.317 89.327C203.547 89.407 202.787 89.487 202.027 89.577C186.787 91.297 171.347 93.727 156.147 96.787C155.147 96.987 154.137 97.197 153.127 97.407C153.107 97.407 153.087 97.417 153.067 97.417C152.917 97.447 152.757 97.477 152.607 97.517C151.567 97.727 150.517 97.947 149.477 98.177C148.327 98.417 147.187 98.667 146.037 98.917C145.077 99.127 144.117 99.347 143.157 99.567C140.897 100.077 138.627 100.597 136.367 101.147C131.767 102.247 127.17 103.41 122.577 104.637C121.537 104.917 120.487 105.197 119.437 105.487C119.429 105.488 119.422 105.491 119.417 105.497C118.877 105.637 118.327 105.787 117.787 105.937C102.587 110.117 87.157 115.057 71.917 120.637C70.797 121.047 69.677 121.457 68.547 121.887C68.5194 121.889 68.4923 121.896 68.467 121.907C65.437 123.037 62.3904 124.197 59.327 125.387C58.217 125.827 57.097 126.267 55.977 126.707C54.897 127.137 53.807 127.567 52.727 128.007C51.777 128.387 50.837 128.767 49.887 129.157C49.127 129.467 48.377 129.777 47.617 130.087C45.017 131.167 42.4204 132.26 39.827 133.367C38.257 134.047 36.677 134.727 35.107 135.417C34.597 135.637 34.077 135.857 33.567 136.087C29.787 137.757 26.347 139.307 23.047 140.837C19.5325 142.462 16.5551 145.057 14.4648 148.317C12.3745 151.576 11.2581 155.365 11.247 159.237V194.527C11.247 197.671 11.9795 200.772 13.3865 203.584C14.7935 206.395 16.8363 208.84 19.3528 210.725C21.8694 212.61 24.7904 213.882 27.8843 214.441C30.9783 215.001 34.1599 214.831 37.177 213.947C38.667 213.507 40.157 213.067 41.657 212.627C42.907 212.257 44.167 211.897 45.417 211.537C46.787 211.147 48.147 210.757 49.517 210.367C52.647 209.497 55.797 208.627 58.947 207.787C60.417 207.397 61.887 207.007 63.357 206.617C65.667 206.007 67.977 205.417 70.287 204.827C70.927 204.667 71.567 204.507 72.207 204.347C82.257 201.827 92.357 199.487 102.377 197.367C103.407 197.147 104.437 196.937 105.457 196.727C109.667 195.847 113.854 195.014 118.017 194.227L121.017 193.657H121.047C122.027 193.467 123.007 193.287 123.987 193.107C126.727 192.607 129.484 192.12 132.257 191.647C133.847 191.367 135.447 191.097 137.047 190.837C137.207 190.807 137.367 190.777 137.527 190.757C140.287 190.297 143.054 189.854 145.827 189.427C147.707 189.137 149.597 188.847 151.487 188.577C153.097 188.337 154.707 188.107 156.317 187.877C171.577 185.737 186.987 184.027 202.127 182.827C203.437 182.717 204.747 182.617 206.057 182.517C211.137 182.137 216.257 181.797 221.387 181.517C227.727 181.177 234.087 180.907 240.417 180.717C255.617 180.247 271.027 180.247 286.217 180.717C292.557 180.907 298.917 181.177 305.257 181.517C310.387 181.797 315.507 182.137 320.587 182.517C321.897 182.617 323.207 182.717 324.517 182.827C339.647 184.027 355.057 185.727 370.337 187.877C371.067 187.977 371.787 188.087 372.517 188.187C372.777 188.227 373.027 188.257 373.287 188.297C374.397 188.457 375.507 188.627 376.617 188.787C380.787 189.407 384.954 190.064 389.117 190.757C390.187 190.927 391.257 191.107 392.317 191.287C394.607 191.677 396.887 192.074 399.157 192.477C400.477 192.717 401.787 192.957 403.097 193.197C403.927 193.347 404.767 193.497 405.597 193.657C406.607 193.847 407.617 194.037 408.617 194.227C410.267 194.537 411.917 194.857 413.577 195.187C414.617 195.397 415.667 195.597 416.717 195.817C427.907 198.067 439.207 200.597 450.457 203.357C451.627 203.647 452.797 203.937 453.967 204.227C454.127 204.267 454.277 204.307 454.437 204.347C455.647 204.647 456.857 204.957 458.067 205.267C459.797 205.707 461.53 206.157 463.267 206.617C464.737 206.997 466.207 207.387 467.677 207.787C472.217 208.997 476.757 210.257 481.267 211.547C484.017 212.337 486.754 213.137 489.477 213.947H489.497C490.582 214.268 491.693 214.496 492.817 214.627C493.613 214.727 494.415 214.777 495.217 214.777C500.578 214.766 505.715 212.627 509.499 208.829C513.283 205.032 515.404 199.888 515.397 194.527V159.397C515.387 155.486 514.248 151.661 512.118 148.381C509.988 145.102 506.956 142.506 503.387 140.907V140.907Z" fill="#6B08A5"/>
<path d="M71.2671 122.257C70.875 121.985 70.4242 121.81 69.9515 121.746C69.4787 121.682 68.9975 121.73 68.5471 121.887C68.5194 121.889 68.4924 121.896 68.4671 121.907C65.4371 123.037 62.3904 124.197 59.3271 125.387C58.2171 125.827 57.0971 126.267 55.9771 126.707C54.8971 127.137 53.8071 127.567 52.7271 128.007C51.7771 128.387 50.8371 128.767 49.8871 129.157C49.1271 129.467 48.3771 129.777 47.6171 130.087C45.0171 131.167 42.4204 132.261 39.8271 133.367C38.2571 134.047 36.6771 134.727 35.1071 135.417C34.5601 135.656 34.0945 136.048 33.7677 136.548C33.4408 137.047 33.2668 137.631 33.2671 138.227V210.997C33.2651 211.477 33.3763 211.951 33.5918 212.38C33.8072 212.81 34.1208 213.182 34.5071 213.467C34.7524 213.647 35.0216 213.792 35.3071 213.897C35.9102 214.109 36.5654 214.123 37.1771 213.937L41.6471 212.617C42.8971 212.257 44.1471 211.897 45.3971 211.537C46.7671 211.147 48.1371 210.757 49.5171 210.367C52.6471 209.497 55.7971 208.627 58.9471 207.787C60.4171 207.387 61.8871 206.997 63.3571 206.617C65.6671 206.007 67.9771 205.417 70.2871 204.827C70.8574 204.682 71.3743 204.376 71.7771 203.947L71.7871 203.937C72.3006 203.374 72.5858 202.639 72.5871 201.877V124.777C72.5875 124.282 72.4675 123.793 72.2376 123.355C72.0077 122.916 71.6746 122.539 71.2671 122.257Z" fill="#3F3D56"/>
<path d="M155.607 98.0371C155.266 97.7557 154.866 97.5533 154.438 97.4444C154.009 97.3355 153.561 97.3227 153.127 97.4071C153.107 97.4071 153.087 97.4171 153.067 97.4171C152.917 97.4471 152.757 97.4771 152.607 97.5171C151.567 97.7271 150.517 97.9471 149.477 98.1771C148.327 98.4171 147.187 98.6671 146.037 98.9171C145.077 99.1271 144.117 99.3471 143.157 99.5671C140.897 100.077 138.627 100.597 136.367 101.147C131.757 102.247 127.16 103.41 122.577 104.637C121.617 104.887 120.647 105.147 119.687 105.407C119.602 105.429 119.519 105.456 119.437 105.487C119.429 105.488 119.422 105.491 119.417 105.497C118.834 105.718 118.331 106.11 117.976 106.623C117.62 107.135 117.429 107.743 117.427 108.367V190.657C117.426 191.106 117.524 191.549 117.714 191.955C117.904 192.361 118.182 192.721 118.527 193.007C118.764 193.205 119.03 193.363 119.317 193.477C119.685 193.628 120.079 193.706 120.477 193.707C120.658 193.705 120.839 193.689 121.017 193.657H121.047C122.027 193.467 123.007 193.287 123.987 193.107C126.727 192.607 129.484 192.12 132.257 191.647C133.847 191.367 135.447 191.097 137.047 190.837C137.207 190.807 137.367 190.777 137.527 190.757C140.287 190.297 143.054 189.854 145.827 189.427C147.707 189.137 149.597 188.847 151.487 188.577C152.367 188.437 153.247 188.317 154.127 188.187C154.71 188.107 155.256 187.856 155.697 187.467C156.026 187.181 156.289 186.827 156.47 186.43C156.651 186.034 156.746 185.603 156.747 185.167V100.417C156.747 99.9603 156.645 99.5093 156.448 99.0974C156.25 98.6854 155.963 98.3231 155.607 98.0371Z" fill="#3F3D56"/>
<path d="M239.957 87.6171C239.39 87.078 238.639 86.7743 237.857 86.7671H237.707C237.137 86.7971 236.557 86.8171 235.987 86.8471C235.767 86.8571 235.537 86.8671 235.317 86.8771C233.807 86.9571 232.297 87.0371 230.787 87.1271C229.177 87.2171 227.577 87.3171 225.977 87.4271C224.967 87.4971 223.967 87.5671 222.967 87.6371C222.307 87.6871 221.647 87.7371 220.977 87.7871C216.797 88.1071 212.617 88.4771 208.467 88.8971C207.077 89.0371 205.697 89.1771 204.317 89.3271C203.565 89.4081 202.871 89.7646 202.366 90.3279C201.862 90.8911 201.585 91.6212 201.587 92.3771V179.567C201.586 179.987 201.673 180.402 201.842 180.785C202.01 181.169 202.258 181.514 202.567 181.797C202.753 181.973 202.962 182.124 203.187 182.247C203.635 182.49 204.137 182.617 204.647 182.617C204.717 182.617 204.797 182.607 204.877 182.607C205.267 182.577 205.667 182.547 206.057 182.517C211.137 182.137 216.257 181.797 221.387 181.517C226.917 181.207 232.447 180.967 237.947 180.787C238.542 180.778 239.121 180.59 239.607 180.247C240.01 179.965 240.339 179.589 240.566 179.152C240.792 178.715 240.909 178.229 240.907 177.737V89.8371C240.909 89.4218 240.825 89.0105 240.662 88.6287C240.499 88.2469 240.259 87.9026 239.957 87.6171V87.6171Z" fill="#3F3D56"/>
<path d="M322.367 89.757H322.347C322.217 89.737 322.077 89.727 321.947 89.717C320.687 89.567 319.427 89.427 318.167 89.297C316.507 89.117 314.857 88.947 313.197 88.787C309.267 88.397 305.344 88.057 301.427 87.767C300.437 87.687 299.457 87.617 298.477 87.557C297.347 87.467 296.217 87.397 295.097 87.327C293.937 87.247 292.777 87.1769 291.617 87.1169C291.177 87.0869 290.747 87.067 290.317 87.047C289.857 87.017 289.407 86.987 288.957 86.967C288.867 86.9586 288.777 86.9553 288.687 86.957C287.942 86.9791 287.232 87.2787 286.697 87.797C286.393 88.0831 286.151 88.4287 285.985 88.8123C285.82 89.1959 285.736 89.6093 285.737 90.027V177.737C285.734 178.23 285.852 178.717 286.081 179.154C286.309 179.592 286.641 179.967 287.047 180.247C287.53 180.59 288.105 180.778 288.697 180.787C294.197 180.967 299.727 181.207 305.257 181.517C310.387 181.797 315.507 182.137 320.587 182.517C320.977 182.547 321.377 182.577 321.767 182.607C321.847 182.607 321.917 182.617 321.997 182.617C322.507 182.617 323.009 182.489 323.457 182.247C323.682 182.124 323.891 181.973 324.077 181.797C324.385 181.512 324.631 181.168 324.799 180.784C324.968 180.4 325.056 179.986 325.057 179.567V92.797C325.055 92.0499 324.78 91.3293 324.285 90.7699C323.79 90.2104 323.108 89.8504 322.367 89.757Z" fill="#3F3D56"/>
<path d="M407.197 106.227C407.119 106.196 407.038 106.169 406.957 106.147C406.087 105.907 405.217 105.677 404.347 105.447C402.667 104.997 400.98 104.557 399.287 104.127C397.697 103.707 396.097 103.307 394.497 102.907C393.087 102.557 391.677 102.207 390.257 101.867C388.867 101.527 387.477 101.197 386.077 100.877C381.907 99.8971 377.744 98.9705 373.587 98.0972C373.558 98.0889 373.527 98.0855 373.497 98.0872C373.066 98.0065 372.622 98.0211 372.197 98.13C371.772 98.2388 371.376 98.4392 371.037 98.7172C370.681 99.0032 370.394 99.3656 370.196 99.7775C369.999 100.189 369.897 100.64 369.897 101.097V185.167C369.898 185.604 369.993 186.036 370.176 186.433C370.359 186.83 370.625 187.183 370.957 187.467C371.394 187.856 371.937 188.107 372.517 188.187C372.777 188.227 373.027 188.257 373.287 188.297C374.397 188.457 375.507 188.617 376.617 188.787C380.787 189.407 384.954 190.064 389.117 190.757C390.187 190.927 391.257 191.107 392.317 191.287C394.607 191.677 396.887 192.074 399.157 192.477C400.477 192.717 401.787 192.957 403.097 193.197C403.927 193.347 404.767 193.497 405.597 193.657C405.785 193.689 405.976 193.705 406.167 193.707C406.565 193.707 406.959 193.629 407.327 193.477C407.615 193.366 407.882 193.207 408.117 193.007C408.462 192.721 408.74 192.361 408.93 191.955C409.12 191.549 409.218 191.106 409.217 190.657V109.107C409.216 108.478 409.022 107.864 408.66 107.349C408.299 106.834 407.788 106.442 407.197 106.227Z" fill="#3F3D56"/>
<path d="M491.567 135.737L491.507 135.707C488.517 134.427 485.52 133.174 482.517 131.947C480.417 131.087 478.327 130.237 476.227 129.407C475.407 129.067 474.587 128.747 473.757 128.427C472.427 127.897 471.087 127.377 469.757 126.857C468.657 126.427 467.547 126.007 466.447 125.587C465.177 125.097 463.907 124.627 462.647 124.147C461.147 123.587 459.65 123.034 458.157 122.487C458.142 122.479 458.124 122.475 458.107 122.477C457.654 122.314 457.167 122.263 456.69 122.329C456.213 122.395 455.759 122.577 455.367 122.857C454.963 123.139 454.632 123.514 454.404 123.951C454.176 124.388 454.057 124.874 454.057 125.367V201.877C454.057 202.512 454.257 203.131 454.627 203.647C454.698 203.748 454.775 203.845 454.857 203.937L454.867 203.947C455.268 204.378 455.786 204.684 456.357 204.827C456.927 204.967 457.497 205.117 458.067 205.267C459.797 205.707 461.53 206.157 463.267 206.617C464.737 206.997 466.207 207.387 467.677 207.787C472.217 208.997 476.757 210.257 481.267 211.547C484.017 212.337 486.754 213.137 489.477 213.947H489.497C489.773 214.026 490.06 214.066 490.347 214.067C490.684 214.066 491.019 214.008 491.337 213.897C491.624 213.796 491.894 213.651 492.137 213.467C492.52 213.18 492.831 212.807 493.045 212.378C493.258 211.949 493.369 211.476 493.367 210.997V138.527C493.368 137.938 493.199 137.361 492.88 136.866C492.56 136.371 492.104 135.979 491.567 135.737V135.737Z" fill="#3F3D56"/>
<path d="M41.7243 212.676C54.7466 221.451 68.3436 229.341 82.0463 236.996C96.7051 245.185 111.517 253.096 126.178 261.28C140.928 269.513 155.548 278.012 169.65 287.321C183.363 296.196 196.328 306.177 208.416 317.163C219.864 327.76 230.233 339.602 238.384 352.937C239.356 354.528 240.296 356.137 241.203 357.765C242.144 359.451 244.736 357.94 243.793 356.251C236.03 342.657 226.364 330.241 215.09 319.38C203.3 308.028 190.536 297.733 176.944 288.615C162.934 279.025 148.329 270.335 133.556 261.982C118.826 253.654 103.905 245.671 89.097 237.482C75.1582 229.774 61.2891 221.896 47.9374 213.2C46.363 212.174 44.7966 211.136 43.2385 210.086C41.6331 209.004 40.1299 211.602 41.7243 212.676H41.7243Z" fill="#3F3D56"/>
<path d="M92.3394 177.472C98.5786 191.532 106.244 204.915 115.216 217.41C124.397 230.206 134.218 242.532 144.641 254.339C155.066 266.35 165.804 278.084 176.306 290.028C186.687 301.837 196.867 313.853 206.162 326.544C215.387 338.896 223.398 352.109 230.086 365.999C230.895 367.721 231.677 369.456 232.432 371.202C233.198 372.969 235.783 371.443 235.023 369.688C228.783 355.628 221.118 342.246 212.146 329.751C202.965 316.954 193.144 304.629 182.721 292.821C172.296 280.811 161.558 269.076 151.056 257.132C140.675 245.324 130.495 233.307 121.2 220.617C111.975 208.265 103.964 195.052 97.2765 181.161C96.4673 179.439 95.685 177.705 94.9298 175.958C94.1642 174.191 91.5788 175.717 92.3394 177.472V177.472Z" fill="#3F3D56"/>
<path d="M459.057 195.362C447.616 206.279 435.498 216.466 422.777 225.862C409.577 235.797 396.019 245.243 382.528 254.776C369.059 264.293 355.636 273.894 342.704 284.134C330.224 293.815 318.504 304.438 307.648 315.91C297.516 326.834 288.435 338.865 281.628 352.154C280.809 353.752 280.025 355.366 279.274 356.997C278.471 358.739 281.056 360.265 281.865 358.512C288.199 345.155 296.445 332.792 306.345 321.814C316.813 310.205 328.223 299.482 340.459 289.755C353.172 279.435 366.451 269.835 379.803 260.366C393.305 250.791 406.912 241.36 420.209 231.501C433.055 222.159 445.366 212.103 457.085 201.38C458.463 200.096 459.828 198.796 461.179 197.483C462.566 196.135 460.443 194.015 459.057 195.362V195.362Z" fill="#3F3D56"/>
<path d="M428.137 167.746C421.898 181.806 414.233 195.189 405.261 207.684C396.073 220.476 386.241 232.792 375.802 244.585C365.366 256.587 354.627 268.321 344.133 280.273C333.758 292.088 323.61 304.127 314.314 316.818C305.09 329.17 297.078 342.383 290.391 356.273C289.582 357.996 288.8 359.73 288.044 361.476C287.285 363.23 289.868 364.759 290.635 362.991C296.874 348.931 304.54 335.548 313.511 323.053C322.699 310.261 332.532 297.945 342.97 286.152C353.406 274.15 364.146 262.416 374.639 250.464C385.014 238.649 395.162 226.61 404.458 213.919C413.682 201.567 421.694 188.354 428.381 174.463C429.19 172.741 429.973 171.007 430.728 169.261C431.488 167.507 428.904 165.978 428.137 167.746V167.746Z" fill="#3F3D56"/>
<path d="M206.669 548.641L208.56 555.2L234.762 551.029L231.971 541.347L206.669 548.641Z" fill="#FFB6B6"/>
<path d="M199.76 550.382L205.574 570.554L205.829 570.48C207.911 569.88 209.67 568.477 210.718 566.58C211.766 564.684 212.018 562.448 211.418 560.366L211.418 560.365L213.151 555.875L208.374 549.806L207.867 548.045L199.76 550.382Z" fill="#2F2E41"/>
<path d="M319.171 580.861L325.832 579.364L323.228 552.96L313.397 555.17L319.171 580.861Z" fill="#FFB6B6"/>
<path d="M318.556 588.341L339.038 583.738L338.98 583.479C338.505 581.365 337.209 579.526 335.378 578.367C333.547 577.208 331.33 576.823 329.216 577.298L329.216 577.299L324.836 575.301L318.494 579.708L316.706 580.11L318.556 588.341Z" fill="#2F2E41"/>
<path d="M298.784 439.447L328.945 563.207L314.192 564.514L297.844 523.096L272.609 474.347L274.89 529.988L227.941 557.445L216.908 542.331L254.44 522.145L238.045 448.507L242.409 439.447L298.784 439.447Z" fill="#2F2E41"/>
<path d="M238.354 450.284C233.465 443.439 242.51 432.169 243.619 429.784C242.302 429.357 241.174 428.486 240.427 427.32C239.68 426.154 239.36 424.766 239.521 423.391L240 419.326L240.498 415.34L236.928 411.769L236.918 411.68L234.863 393.702L231.875 381.76C230.75 377.246 230.846 372.514 232.153 368.049C233.461 363.584 235.933 359.548 239.316 356.354L246.222 355.257L254.614 347.171H268.148L272.788 351.605C281.451 353.124 282.939 352.628 290.38 361.557L286.999 389.318L286.156 393.137L286.158 398.317L288.302 400.7C289.075 401.559 289.636 402.586 289.942 403.699C290.247 404.813 290.288 405.983 290.062 407.115L289.78 408.525C291.991 409.473 294.102 426.317 294.606 428.67L295.359 432.184C296.003 433.034 300.256 438.705 300.256 440.256C300.256 440.488 300.085 440.713 299.716 440.963C296.818 442.926 271.445 448.122 264.354 445.284C256.801 442.264 238.354 450.284 238.354 450.284Z" fill="#EDEDED"/>
<path d="M211.234 367.913L217.185 375.191C219.425 377.93 222.184 380.199 225.303 381.868C228.423 383.537 231.842 384.572 235.364 384.915V384.915C237.546 385.12 239.742 384.709 241.703 383.731C243.664 382.753 245.313 381.246 246.463 379.38V379.38C248.004 376.84 248.524 373.81 247.916 370.901C247.309 367.993 245.62 365.424 243.19 363.713C235.819 358.532 231.797 350.503 226.002 353.106L224.755 350.044L208.415 336.841L195.022 348.333L211.234 367.913Z" fill="#EDEDED"/>
<path d="M326.425 343.829L313.468 331.848L303.362 338.283L302.003 341.297C296.308 338.48 285.278 352.507 277.719 357.411C275.228 359.03 273.445 361.535 272.73 364.419C272.015 367.303 272.421 370.351 273.868 372.946V372.946C274.947 374.853 276.539 376.421 278.463 377.471C280.387 378.521 282.566 379.012 284.754 378.889C288.286 378.677 291.741 377.769 294.92 376.217C298.1 374.665 300.941 372.5 303.281 369.846L309.497 362.794L326.425 343.829Z" fill="#EDEDED"/>
<path d="M260.468 343.265C268.769 343.265 275.498 336.536 275.498 328.235C275.498 319.934 268.769 313.205 260.468 313.205C252.167 313.205 245.438 319.934 245.438 328.235C245.438 336.536 252.167 343.265 260.468 343.265Z" fill="#FFB6B6"/>
<path d="M249.56 338.829C249.429 338.714 249.305 338.591 249.177 338.472C249.172 338.485 249.172 338.497 249.167 338.509L249.56 338.829Z" fill="#2F2E41"/>
<path d="M274.577 322.597C274.497 322.547 274.427 322.497 274.347 322.457C273.359 321.68 272.134 321.267 270.877 321.287C269.677 321.437 268.687 322.297 267.537 322.637C265.067 323.357 262.577 321.597 260.017 321.417H259.957C259.142 321.366 258.324 321.476 257.551 321.74C256.778 322.005 256.064 322.419 255.452 322.96C254.839 323.5 254.338 324.156 253.979 324.89C253.62 325.624 253.408 326.421 253.357 327.237C253.307 328.067 253.417 328.897 253.317 329.717C253.29 330.133 253.16 330.535 252.941 330.889C252.721 331.243 252.418 331.538 252.057 331.747C250.927 332.257 249.407 331.497 248.447 332.287C247.597 332.997 247.907 334.377 248.417 335.367C249.012 336.201 249.305 337.214 249.247 338.237C249.228 338.318 249.205 338.398 249.177 338.477C246.863 336.322 245.026 333.705 243.786 330.796C242.545 327.886 241.929 324.749 241.977 321.587C241.937 320.193 242.225 318.809 242.817 317.547C243.115 316.918 243.564 316.372 244.124 315.958C244.684 315.545 245.338 315.276 246.027 315.177C247.207 315.077 248.427 315.607 249.547 315.227C250.927 314.767 251.507 313.177 252.227 311.897C253.115 310.371 254.406 309.119 255.958 308.277C257.51 307.436 259.264 307.038 261.027 307.127C262.296 307.251 263.549 307.503 264.767 307.877L267.147 308.527C268.055 308.741 268.937 309.052 269.777 309.457C271.006 310.163 272.04 311.163 272.787 312.367C273.421 313.336 273.922 314.385 274.277 315.487C272.959 315.555 271.637 315.509 270.327 315.347C271.827 316.277 273.337 317.207 274.837 318.137C275.015 319.627 274.927 321.137 274.577 322.597V322.597Z" fill="#2F2E41"/>
<path d="M511.616 98.8642C538.917 98.8642 561.048 76.7327 561.048 49.4321C561.048 22.1315 538.917 0 511.616 0C484.316 0 462.184 22.1315 462.184 49.4321C462.184 76.7327 484.316 98.8642 511.616 98.8642Z" fill="#FF6584"/>
<path d="M622.257 26.027C619.397 16.447 611.317 10.197 601.557 8.82704C601.457 8.81704 601.347 8.83699 601.247 8.82704C601.11 8.78317 600.969 8.74974 600.827 8.72704C587.001 7.04515 573.013 10.0902 561.137 17.367C558.42 19.0652 555.578 20.5561 552.637 21.827C543.206 25.803 533.118 27.987 522.887 28.267C522.807 28.267 522.727 28.277 522.647 28.277C517.636 28.61 512.85 30.4794 508.94 33.6306C505.03 36.7818 502.187 41.0615 500.797 45.887C500.65 46.477 500.694 47.0986 500.925 47.6615C501.155 48.2244 501.558 48.6992 502.077 49.0169C503.57 50.2822 505.336 51.1826 507.237 51.6469C511.347 52.5169 515.467 53.3136 519.597 54.0369C527.667 55.4469 535.777 56.5869 543.927 57.4569C549.327 58.0369 554.737 58.4903 560.157 58.8169C571.337 59.5169 582.567 59.6869 593.767 59.3369C599.307 59.1669 604.647 58.9869 609.727 56.5369C613.42 54.7147 616.574 51.9607 618.877 48.5469C621.05 45.2673 622.478 41.5519 623.062 37.6614C623.646 33.771 623.371 29.8 622.257 26.027V26.027Z" fill="white"/>
<path d="M428.597 394.277C426.537 387.377 420.717 382.867 413.677 381.877C413.597 381.867 413.527 381.887 413.447 381.877C413.348 381.848 413.248 381.824 413.147 381.807C403.177 380.589 393.088 382.785 384.527 388.037C376.277 393.187 366.667 395.517 356.947 395.897C356.89 395.896 356.833 395.899 356.777 395.907C353.166 396.148 349.717 397.495 346.899 399.766C344.081 402.036 342.03 405.12 341.027 408.597C340.919 409.023 340.951 409.471 341.116 409.878C341.282 410.284 341.573 410.628 341.947 410.857C343.021 411.771 344.295 412.419 345.667 412.747C348.627 413.377 351.607 413.947 354.587 414.477C360.397 415.487 366.257 416.307 372.127 416.937C384.058 418.22 396.063 418.674 408.057 418.297C412.047 418.177 415.897 418.047 419.557 416.277C422.223 414.964 424.502 412.979 426.167 410.517C427.732 408.151 428.76 405.471 429.179 402.666C429.599 399.861 429.4 396.997 428.597 394.277V394.277Z" fill="white"/>
<path d="M112.597 312.277C110.537 305.377 104.717 300.867 97.677 299.877C97.597 299.867 97.527 299.887 97.447 299.877C97.3484 299.848 97.2483 299.824 97.147 299.807C87.1771 298.589 77.0886 300.785 68.527 306.037C60.277 311.187 50.667 313.517 40.947 313.897C40.8901 313.896 40.8333 313.899 40.777 313.907C37.166 314.148 33.7168 315.495 30.8987 317.766C28.0806 320.036 26.0304 323.12 25.027 326.597C24.9194 327.023 24.9506 327.471 25.1162 327.878C25.2817 328.284 25.5728 328.628 25.947 328.857C27.0208 329.771 28.2954 330.419 29.667 330.747C32.627 331.377 35.607 331.947 38.587 332.477C44.397 333.487 50.257 334.307 56.127 334.937C68.0578 336.22 80.0633 336.674 92.057 336.297C96.047 336.177 99.897 336.047 103.557 334.277C106.224 332.964 108.502 330.979 110.167 328.517C111.732 326.151 112.76 323.471 113.18 320.666C113.599 317.861 113.4 314.997 112.597 312.277V312.277Z" fill="white"/>
<path d="M195.524 740.004C198.904 743.714 202.184 747.504 205.364 751.374C158.083 742.916 112.862 725.468 72.1541 699.974C71.3041 699.444 70.4641 698.914 69.6241 698.374C46.5251 683.662 25.0868 666.492 5.68408 647.164C9.08408 643.974 11.1841 642.074 11.1841 642.074C58.6341 591.114 63.9541 573.174 111.404 522.214C127.184 586.154 193.534 630.574 228.334 686.484C218.187 693.565 207.086 699.171 195.364 703.134C195.284 703.224 195.204 703.324 195.124 703.414C190.707 708.508 188.309 715.043 188.383 721.785C188.456 728.527 190.997 735.008 195.524 740.004Z" fill="white"/>
<path d="M604.504 559.864C576.088 611.965 535.859 656.684 487.044 690.434C486.004 691.154 484.964 691.874 483.914 692.584C449.337 715.993 411.105 733.482 370.784 744.334C368.848 742.843 366.674 741.69 364.354 740.924V740.904C366.954 736.044 369.554 731.184 372.154 726.324C363.174 735.484 347.514 737.054 336.894 729.874C338.64 725.93 341.133 722.361 344.234 719.364C341.634 720.554 337.594 718.834 336.474 715.834C335.064 712.084 336.664 707.934 338.344 704.294C356.874 664.214 417.584 599.324 418.534 598.314C417.884 598.714 390.164 616.124 374.084 614.834C373.264 609.914 351.934 603.904 349.554 601.404C359.244 579.614 404.184 539.074 404.184 539.074C451.634 488.114 456.954 470.174 504.404 419.214C517.904 473.914 568.404 514.324 604.504 559.864Z" fill="white"/>
<g opacity="0.2">
<path d="M0 198.051C0.29522 197.66 0.604618 197.284 0.905518 196.898L0.921875 196.745L0 198.051Z" fill="black"/>
<path d="M513.364 202.174C511.705 206.118 508.811 209.417 505.115 211.574C501.42 213.731 497.124 214.629 492.874 214.134C491.771 214.001 490.68 213.777 489.614 213.464C477.924 209.984 466.237 206.784 454.554 203.864C439.274 200.024 423.994 196.648 408.714 193.734C395.944 191.294 383.174 189.178 370.404 187.384C355.114 185.234 339.831 183.548 324.554 182.324C311.784 181.294 299.011 180.591 286.234 180.214C270.954 179.744 255.677 179.744 240.404 180.214C227.634 180.594 214.861 181.298 202.084 182.324C186.804 183.544 171.524 185.231 156.244 187.384C143.474 189.184 130.701 191.301 117.924 193.734C102.644 196.644 87.3641 200.021 72.0841 203.864C60.3941 206.794 48.7108 209.994 37.0341 213.464C35.9679 213.777 34.8774 214.001 33.7741 214.134C31.007 214.458 28.2026 214.192 25.5455 213.355C22.8884 212.517 20.4388 211.126 18.3578 209.274C16.2768 207.421 14.6116 205.149 13.4717 202.607C12.3317 200.065 11.743 197.31 11.7441 194.524V185.284C34.2941 164.894 66.1941 155.444 96.9541 152.224C133.534 148.394 170.704 151.664 207.084 146.234C236.744 141.804 266.214 131.594 295.994 135.144C321.944 138.224 345.594 151.524 371.184 156.844C403.284 163.514 437.174 157.384 468.984 165.314C481.454 168.414 493.674 173.864 502.584 183.114C507.747 188.442 511.458 195.004 513.364 202.174V202.174Z" fill="black"/>
</g>
<path d="M262.126 410.709C272.737 410.709 281.338 402.108 281.338 391.497C281.338 380.886 272.737 372.284 262.126 372.284C251.515 372.284 242.913 380.886 242.913 391.497C242.913 402.108 251.515 410.709 262.126 410.709Z" fill="#6B08A5"/>
<path d="M259.505 401.496C259.173 401.496 258.846 401.419 258.549 401.271C258.252 401.122 257.994 400.907 257.795 400.641L252.554 393.652C252.385 393.428 252.262 393.172 252.191 392.9C252.121 392.628 252.105 392.345 252.145 392.067C252.184 391.788 252.278 391.52 252.421 391.279C252.564 391.037 252.754 390.825 252.978 390.657C253.203 390.488 253.459 390.366 253.731 390.296C254.004 390.226 254.287 390.211 254.565 390.251C254.843 390.291 255.111 390.386 255.353 390.529C255.594 390.673 255.805 390.863 255.973 391.088L259.402 395.66L268.21 382.449C268.524 381.977 269.013 381.65 269.569 381.539C270.125 381.428 270.702 381.542 271.173 381.856C271.645 382.171 271.972 382.66 272.084 383.215C272.195 383.771 272.081 384.348 271.766 384.82L261.283 400.545C261.094 400.829 260.838 401.064 260.539 401.229C260.24 401.395 259.906 401.486 259.564 401.495L259.505 401.496Z" fill="#EDEDED"/>
<path d="M498.354 503.644C497.444 518.594 496.537 533.548 495.634 548.504C494.034 574.924 492.434 601.348 490.834 627.774C489.574 648.664 488.311 669.551 487.044 690.434C486.004 691.154 484.964 691.874 483.914 692.584C484.524 682.614 485.127 672.644 485.724 662.674C487.324 636.244 488.924 609.821 490.524 583.404C492.134 556.814 493.744 530.228 495.354 503.644C495.464 501.714 498.464 501.714 498.354 503.644Z" fill="#EDEDED"/>
<path d="M399.908 577.297L452.777 532.72L467.61 520.213C469.088 518.967 466.957 516.854 465.489 518.092L412.62 562.668L397.787 575.176C396.309 576.422 398.44 578.534 399.908 577.297Z" fill="#EDEDED"/>
<path d="M406.659 661.14L445.21 627.124C446.661 625.844 444.532 623.729 443.089 625.003L404.538 659.019C403.087 660.299 405.215 662.414 406.659 661.14Z" fill="#EDEDED"/>
<path d="M35.6589 646.14L74.21 612.124C75.6606 610.844 73.5322 608.729 72.0887 610.003L33.5375 644.019C32.087 645.299 34.2154 647.414 35.6589 646.14Z" fill="#EDEDED"/>
<path d="M532.583 548.059C537.644 547.844 542.675 548.934 547.193 551.225C551.71 553.515 555.563 556.93 558.38 561.139C559.434 562.748 562.033 561.246 560.97 559.625C557.885 554.967 553.654 551.18 548.682 548.629C543.711 546.078 538.167 544.848 532.583 545.059C530.661 545.149 530.65 548.15 532.583 548.059V548.059Z" fill="#8D8D8D"/>
<path d="M112.471 604.332C138.124 616.541 158.669 637.379 170.514 663.202C171.319 664.955 173.905 663.432 173.105 661.688C163.686 641.346 148.958 623.919 130.471 611.24C125.234 607.646 119.722 604.47 113.986 601.742C112.251 600.916 110.727 603.502 112.471 604.332H112.471Z" fill="#EDEDED"/>
<path d="M110.544 583.474C108.484 594.924 105.971 606.281 103.004 617.544C97.7619 637.436 91.1255 656.935 83.1441 675.894C79.7241 684.034 76.0608 692.061 72.1541 699.974C71.3041 699.444 70.4641 698.914 69.6241 698.374C78.5629 680.208 86.2281 661.443 92.5641 642.214C98.9834 622.75 104.023 602.857 107.644 582.684C107.984 580.784 110.884 581.594 110.544 583.474Z" fill="#EDEDED"/>
<path d="M138.654 447.342C146.698 447.342 153.219 440.821 153.219 432.777C153.219 424.734 146.698 418.213 138.654 418.213C130.611 418.213 124.09 424.734 124.09 432.777C124.09 440.821 130.611 447.342 138.654 447.342Z" fill="#EDEDED"/>
<path d="M136.668 440.358C136.416 440.358 136.168 440.299 135.943 440.186C135.718 440.074 135.522 439.911 135.372 439.709L131.398 434.411C131.14 434.068 131.03 433.636 131.09 433.21C131.151 432.785 131.379 432.401 131.722 432.143C132.066 431.886 132.498 431.775 132.923 431.836C133.349 431.896 133.733 432.124 133.99 432.467L136.59 435.933L143.266 425.919C143.384 425.74 143.536 425.587 143.712 425.468C143.889 425.348 144.088 425.265 144.297 425.223C144.506 425.181 144.722 425.18 144.931 425.221C145.141 425.262 145.34 425.344 145.517 425.463C145.695 425.581 145.847 425.733 145.966 425.911C146.084 426.088 146.167 426.287 146.208 426.497C146.249 426.706 146.249 426.922 146.207 427.131C146.165 427.34 146.082 427.539 145.962 427.716L138.016 439.636C137.872 439.852 137.679 440.03 137.452 440.155C137.225 440.28 136.972 440.35 136.713 440.357L136.668 440.358Z" fill="#EDEDED"/>
<path d="M166.703 447.342C174.746 447.342 181.267 440.821 181.267 432.777C181.267 424.734 174.746 418.213 166.703 418.213C158.659 418.213 152.138 424.734 152.138 432.777C152.138 440.821 158.659 447.342 166.703 447.342Z" fill="#EDEDED"/>
<path d="M164.716 440.358C164.464 440.358 164.216 440.299 163.991 440.186C163.766 440.074 163.571 439.911 163.42 439.709L159.447 434.411C159.189 434.068 159.078 433.636 159.139 433.21C159.2 432.785 159.427 432.401 159.771 432.143C160.114 431.886 160.546 431.775 160.972 431.836C161.397 431.896 161.781 432.124 162.039 432.467L164.638 435.933L171.315 425.919C171.432 425.74 171.584 425.587 171.761 425.468C171.938 425.348 172.136 425.265 172.346 425.223C172.555 425.181 172.77 425.18 172.98 425.221C173.189 425.262 173.388 425.344 173.566 425.463C173.743 425.581 173.896 425.733 174.014 425.911C174.133 426.088 174.215 426.287 174.256 426.497C174.298 426.706 174.297 426.922 174.255 427.131C174.213 427.34 174.13 427.539 174.011 427.716L166.064 439.636C165.92 439.852 165.727 440.03 165.5 440.155C165.273 440.28 165.02 440.35 164.761 440.357L164.716 440.358Z" fill="#EDEDED"/>
<path d="M152.3 423.842C160.343 423.842 166.864 417.321 166.864 409.277C166.864 401.234 160.343 394.713 152.3 394.713C144.256 394.713 137.735 401.234 137.735 409.277C137.735 417.321 144.256 423.842 152.3 423.842Z" fill="#EDEDED"/>
<path d="M150.313 416.857C150.061 416.857 149.813 416.799 149.588 416.686C149.363 416.574 149.168 416.411 149.017 416.209L145.043 410.911C144.786 410.568 144.675 410.136 144.736 409.71C144.796 409.285 145.024 408.901 145.367 408.643C145.711 408.385 146.143 408.275 146.569 408.336C146.994 408.396 147.378 408.624 147.635 408.967L150.235 412.433L156.912 402.418C157.151 402.063 157.521 401.817 157.941 401.734C158.362 401.651 158.798 401.738 159.154 401.975C159.51 402.213 159.758 402.582 159.843 403.002C159.928 403.422 159.843 403.858 159.608 404.216L151.661 416.136C151.517 416.352 151.324 416.53 151.097 416.655C150.87 416.78 150.617 416.85 150.358 416.857L150.313 416.857Z" fill="#EDEDED"/>
<path d="M194.414 410.274L192.264 410.489L181.651 438.538H124.038L113.425 410.489L111.274 410.274C110.588 410.206 109.894 410.282 109.239 410.497C108.583 410.713 107.98 411.064 107.469 411.527C106.957 411.99 106.548 412.555 106.269 413.185C105.989 413.816 105.844 414.498 105.844 415.188V478.766C105.844 481.248 106.333 483.706 107.283 485.999C108.233 488.292 109.625 490.376 111.38 492.131C113.135 493.886 115.219 495.278 117.512 496.228C119.805 497.178 122.263 497.667 124.745 497.667H180.943C183.425 497.667 185.883 497.178 188.176 496.228C190.47 495.278 192.553 493.886 194.308 492.131C196.063 490.376 197.456 488.292 198.405 485.999C199.355 483.706 199.844 481.248 199.844 478.766V415.188C199.844 414.498 199.7 413.816 199.42 413.185C199.14 412.555 198.731 411.99 198.219 411.527C197.708 411.064 197.105 410.713 196.45 410.497C195.794 410.282 195.101 410.206 194.414 410.274V410.274Z" fill="white"/>
<path d="M275.622 346.786C274.911 344.695 272.169 344.3 269.96 344.306C265.036 344.321 260.118 344.53 255.205 344.934L255.697 344.365C254.392 343.815 252.955 343.653 251.56 343.901C250.205 344.286 249.092 345.842 249.704 347.11C250.164 348.063 251.449 348.668 251.356 349.722C251.2 351.506 247.748 350.913 247.21 352.621C247.137 352.961 247.17 353.314 247.305 353.634C247.441 353.954 247.672 354.224 247.967 354.407C248.565 354.761 249.236 354.974 249.928 355.029C257.236 356.089 264.695 355.128 271.495 352.248C272.683 351.816 273.768 351.139 274.678 350.261C275.127 349.816 275.45 349.26 275.616 348.65C275.782 348.04 275.784 347.397 275.622 346.786V346.786Z" fill="#EDEDED"/>
</svg>
